<?xml version="1.0" encoding="UTF-8" standalone="no"?>
<!DOCTYPE svg PUBLIC "-//W3C//DTD SVG 1.1//EN"
 "http://www.w3.org/Graphics/SVG/1.1/DTD/svg11.dtd">
<!-- Generated by graphviz version 12.2.1 (20241206.2353)
 -->
<!-- Pages: 1 -->
<svg width="481pt" height="84pt"
 viewBox="0.00 0.00 480.50 83.50" xmlns="http://www.w3.org/2000/svg" xmlns:xlink="http://www.w3.org/1999/xlink">
<g id="graph0" class="graph" transform="scale(1 1) rotate(0) translate(4 79.5)">
<polygon fill="white" stroke="none" points="-4,4 -4,-79.5 476.5,-79.5 476.5,4 -4,4"/>
<!-- p -->
<g id="node1" class="node">
<title>p</title>
<polygon fill="none" stroke="black" points="8,-49 8,-71.5 113.75,-71.5 113.75,-49 8,-49"/>
<text text-anchor="start" x="36.12" y="-55.2" font-family="Times,serif" font-size="14.00">PEOPLE</text>
<polygon fill="none" stroke="black" points="8,-26.5 8,-49 44,-49 44,-26.5 8,-26.5"/>
<text text-anchor="start" x="20.75" y="-32.7" font-family="Times,serif" font-size="14.00">id</text>
<polygon fill="none" stroke="black" points="44,-26.5 44,-49 90.5,-49 90.5,-26.5 44,-26.5"/>
<text text-anchor="start" x="60.12" y="-32.7" font-family="Times,serif" font-size="14.00">int</text>
<polygon fill="none" stroke="black" points="90.5,-26.5 90.5,-49 113.75,-49 113.75,-26.5 90.5,-26.5"/>
<text text-anchor="start" x="93.5" y="-32.7" font-family="Times,serif" font-size="14.00">PK</text>
<polygon fill="none" stroke="black" points="8,-4 8,-26.5 44,-26.5 44,-4 8,-4"/>
<text text-anchor="start" x="11" y="-10.2" font-family="Times,serif" font-size="14.00">name</text>
<polygon fill="none" stroke="black" points="44,-4 44,-26.5 90.5,-26.5 90.5,-4 44,-4"/>
<text text-anchor="start" x="47" y="-10.2" font-family="Times,serif" font-size="14.00">varchar</text>
<polygon fill="none" stroke="black" points="90.5,-4 90.5,-26.5 113.75,-26.5 113.75,-4 90.5,-4"/>
<text text-anchor="start" x="95" y="-10.2" font-family="Times,serif" font-size="14.00">IX</text>
</g>
<!-- pc -->
<g id="node2" class="node">
<title>pc</title>
<polygon fill="none" stroke="black" points="165.75,-49 165.75,-71.5 306.75,-71.5 306.75,-49 165.75,-49"/>
<text text-anchor="start" x="168.75" y="-55.2" font-family="Times,serif" font-size="14.00">PEOPLE_COMPANIES</text>
<polygon fill="none" stroke="black" points="165.75,-26.5 165.75,-49 247.25,-49 247.25,-26.5 165.75,-26.5"/>
<text text-anchor="start" x="179.88" y="-32.7" font-family="Times,serif" font-size="14.00">person_id</text>
<polygon fill="none" stroke="black" points="247.25,-26.5 247.25,-49 275.5,-49 275.5,-26.5 247.25,-26.5"/>
<text text-anchor="start" x="254.25" y="-32.7" font-family="Times,serif" font-size="14.00">int</text>
<polygon fill="none" stroke="black" points="275.5,-26.5 275.5,-49 306.75,-49 306.75,-26.5 275.5,-26.5"/>
<text text-anchor="start" x="282.5" y="-32.7" font-family="Times,serif" font-size="14.00">PK</text>
<polygon fill="none" stroke="black" points="165.75,-4 165.75,-26.5 247.25,-26.5 247.25,-4 165.75,-4"/>
<text text-anchor="start" x="172.75" y="-10.2" font-family="Times,serif" font-size="14.00">company_id</text>
<polygon fill="none" stroke="black" points="247.25,-4 247.25,-26.5 275.5,-26.5 275.5,-4 247.25,-4"/>
<text text-anchor="start" x="254.25" y="-10.2" font-family="Times,serif" font-size="14.00">int</text>
<polygon fill="none" stroke="black" points="275.5,-4 275.5,-26.5 306.75,-26.5 306.75,-4 275.5,-4"/>
<text text-anchor="start" x="282.5" y="-10.2" font-family="Times,serif" font-size="14.00">PK</text>
</g>
<!-- p&#45;&gt;pc -->
<g id="edge1" class="edge">
<title>p:id&#45;&gt;pc:pid_l</title>
<path fill="none" stroke="black" d="M114.75,-37.75C132.63,-37.75 139.72,-37.75 153.39,-37.75"/>
<polygon fill="black" stroke="black" points="153.24,-41.25 163.24,-37.75 153.24,-34.25 153.24,-41.25"/>
</g>
<!-- p&#45;&gt;pc -->
<!-- c -->
<g id="node3" class="node">
<title>c</title>
<polygon fill="none" stroke="black" points="358.75,-49 358.75,-71.5 464.5,-71.5 464.5,-49 358.75,-49"/>
<text text-anchor="start" x="372.25" y="-55.2" font-family="Times,serif" font-size="14.00">COMPANIES</text>
<polygon fill="none" stroke="black" points="358.75,-26.5 358.75,-49 394.75,-49 394.75,-26.5 358.75,-26.5"/>
<text text-anchor="start" x="371.5" y="-32.7" font-family="Times,serif" font-size="14.00">id</text>
<polygon fill="none" stroke="black" points="394.75,-26.5 394.75,-49 441.25,-49 441.25,-26.5 394.75,-26.5"/>
<text text-anchor="start" x="410.88" y="-32.7" font-family="Times,serif" font-size="14.00">int</text>
<polygon fill="none" stroke="black" points="441.25,-26.5 441.25,-49 464.5,-49 464.5,-26.5 441.25,-26.5"/>
<text text-anchor="start" x="444.25" y="-32.7" font-family="Times,serif" font-size="14.00">PK</text>
<polygon fill="none" stroke="black" points="358.75,-4 358.75,-26.5 394.75,-26.5 394.75,-4 358.75,-4"/>
<text text-anchor="start" x="361.75" y="-10.2" font-family="Times,serif" font-size="14.00">name</text>
<polygon fill="none" stroke="black" points="394.75,-4 394.75,-26.5 441.25,-26.5 441.25,-4 394.75,-4"/>
<text text-anchor="start" x="397.75" y="-10.2" font-family="Times,serif" font-size="14.00">varchar</text>
<polygon fill="none" stroke="black" points="441.25,-4 441.25,-26.5 464.5,-26.5 464.5,-4 441.25,-4"/>
<text text-anchor="start" x="445.75" y="-10.2" font-family="Times,serif" font-size="14.00">IX</text>
</g>
<!-- pc&#45;&gt;c -->
<g id="edge2" class="edge">
<title>pc:cid_r&#45;&gt;c:id</title>
<path fill="none" stroke="black" d="M318.92,-17.17C333.32,-22.61 337.76,-37.75 357.75,-37.75"/>
<polygon fill="black" stroke="black" points="319.69,-13.75 309.24,-15.51 318.5,-20.65 319.69,-13.75"/>
</g>
<!-- c&#45;&gt;pc -->
</g>
</svg>
