<?xml version="1.0" encoding="UTF-8" standalone="no"?>
<!DOCTYPE svg PUBLIC "-//W3C//DTD SVG 1.1//EN"
 "http://www.w3.org/Graphics/SVG/1.1/DTD/svg11.dtd">
<!-- Generated by graphviz version 12.2.1 (20241206.2353)
 -->
<!-- Pages: 1 -->
<svg width="367pt" height="104pt"
 viewBox="0.00 0.00 367.28 103.76" xmlns="http://www.w3.org/2000/svg" xmlns:xlink="http://www.w3.org/1999/xlink">
<g id="graph0" class="graph" transform="scale(1 1) rotate(0) translate(4 99.76)">
<polygon fill="white" stroke="none" points="-4,4 -4,-99.76 363.28,-99.76 363.28,4 -4,4"/>
<!-- People -->
<g id="node1" class="node">
<title>People</title>
<polygon fill="none" stroke="black" points="95.76,-95.76 0,-95.76 0,0 95.76,0 95.76,-95.76"/>
<text text-anchor="middle" x="47.88" y="-42.83" font-family="Courier,monospace" font-size="14.00">People</text>
</g>
<!-- People_Companies -->
<g id="node3" class="node">
<title>People_Companies</title>
<polygon fill="none" stroke="black" points="227.52,-95.76 131.76,-95.76 131.76,0 227.52,0 227.52,-95.76"/>
<polyline fill="none" stroke="black" points="143.76,-95.76 131.76,-83.76"/>
<polyline fill="none" stroke="black" points="131.76,-12 143.76,0"/>
<polyline fill="none" stroke="black" points="215.52,0 227.52,-12"/>
<polyline fill="none" stroke="black" points="227.52,-83.76 215.52,-95.76"/>
<text text-anchor="middle" x="179.64" y="-51.08" font-family="Courier,monospace" font-size="14.00">People</text>
<text text-anchor="middle" x="179.64" y="-34.58" font-family="Courier,monospace" font-size="14.00">Companies</text>
</g>
<!-- People&#45;&gt;People_Companies -->
<g id="edge1" class="edge">
<title>People&#45;&gt;People_Companies</title>
<path fill="none" stroke="black" d="M96.09,-47.88C101.44,-47.88 106.95,-47.88 112.48,-47.88"/>
<polygon fill="black" stroke="black" points="121.34,-47.88 131.34,-52.38 126.68,-47.88 131.01,-47.88 131.01,-47.88 131.01,-47.88 126.68,-47.88 131.34,-43.38 121.34,-47.88"/>
<ellipse fill="none" stroke="black" cx="115.63" cy="-47.88" rx="4" ry="4"/>
</g>
<!-- Companies -->
<g id="node2" class="node">
<title>Companies</title>
<polygon fill="none" stroke="black" points="359.28,-95.76 263.52,-95.76 263.52,0 359.28,0 359.28,-95.76"/>
<text text-anchor="middle" x="311.4" y="-42.83" font-family="Courier,monospace" font-size="14.00">Companies</text>
</g>
<!-- People_Companies&#45;&gt;Companies -->
<g id="edge2" class="edge">
<title>People_Companies&#45;&gt;Companies</title>
<path fill="none" stroke="black" d="M247.06,-47.88C252.59,-47.88 258.1,-47.88 263.44,-47.88"/>
<polygon fill="black" stroke="black" points="238.19,-47.88 228.19,-43.38 232.85,-47.88 228.52,-47.88 228.52,-47.88 228.52,-47.88 232.85,-47.88 228.19,-52.38 238.19,-47.88"/>
<ellipse fill="none" stroke="black" cx="243.91" cy="-47.88" rx="4" ry="4"/>
</g>
</g>
</svg>
