<?xml version="1.0" encoding="UTF-8" standalone="no"?>
<!DOCTYPE svg PUBLIC "-//W3C//DTD SVG 1.1//EN"
 "http://www.w3.org/Graphics/SVG/1.1/DTD/svg11.dtd">
<!-- Generated by graphviz version 12.2.1 (20241206.2353)
 -->
<!-- Pages: 1 -->
<svg width="720pt" height="112pt"
 viewBox="0.00 0.00 720.18 112.30" xmlns="http://www.w3.org/2000/svg" xmlns:xlink="http://www.w3.org/1999/xlink">
<g id="graph0" class="graph" transform="scale(1 1) rotate(0) translate(4 108.3)">
<polygon fill="white" stroke="none" points="-4,4 -4,-108.3 716.18,-108.3 716.18,4 -4,4"/>
<!-- start_p -->
<g id="node1" class="node">
<title>start_p</title>
<ellipse fill="none" stroke="black" cx="46.32" cy="-52.15" rx="46.32" ry="46.32"/>
<text text-anchor="middle" x="46.32" y="-55.35" font-family="Courier,monospace" font-weight="bold" font-size="14.00">person</text>
<text text-anchor="middle" x="46.32" y="-38.85" font-family="Courier,monospace" font-weight="bold" font-size="14.00">name</text>
</g>
<!-- people -->
<g id="node5" class="node">
<title>people</title>
<polygon fill="none" stroke="black" points="136.63,-63.4 136.63,-85.9 216.88,-85.9 216.88,-63.4 136.63,-63.4"/>
<text text-anchor="start" x="152.01" y="-70.6" font-family="Courier,monospace" font-weight="bold" font-size="14.00">PEOPLE</text>
<polygon fill="none" stroke="black" points="136.63,-40.9 136.63,-63.4 216.88,-63.4 216.88,-40.9 136.63,-40.9"/>
<text text-anchor="start" x="147.88" y="-47.1" font-family="Courier,monospace" font-size="14.00">id (PK)</text>
<polygon fill="none" stroke="black" points="136.63,-18.4 136.63,-40.9 216.88,-40.9 216.88,-18.4 136.63,-18.4"/>
<text text-anchor="start" x="139.63" y="-24.6" font-family="Courier,monospace" font-size="14.00">name (IX)</text>
</g>
<!-- start_p&#45;&gt;people -->
<g id="edge1" class="edge">
<title>start_p:e&#45;&gt;people:name</title>
<path fill="none" stroke="blue" stroke-width="5" d="M92.63,-52.15C106.95,-46.17 111.7,-34.24 119.6,-29.54"/>
<polygon fill="blue" stroke="blue" stroke-width="5" points="119.36,-33.91 129.39,-29.61 119.42,-25.16 119.36,-33.91"/>
</g>
<!-- start_p&#45;&gt;people -->
<g id="edge8" class="edge">
<title>start_p:e&#45;&gt;people:name</title>
<path fill="none" stroke="green" stroke-width="5" d="M108.85,-52.15C116.54,-47.43 121.3,-35.86 135.13,-29.86"/>
<polygon fill="green" stroke="green" stroke-width="5" points="108.87,-47.78 98.87,-52.15 108.87,-56.53 108.87,-47.78"/>
</g>
<!-- start_p&#45;&gt;people -->
<!-- start_c -->
<g id="node2" class="node">
<title>start_c</title>
<ellipse fill="none" stroke="black" cx="660.03" cy="-52.15" rx="52.15" ry="52.15"/>
<text text-anchor="middle" x="660.03" y="-55.35" font-family="Courier,monospace" font-weight="bold" font-size="14.00">company</text>
<text text-anchor="middle" x="660.03" y="-38.85" font-family="Courier,monospace" font-weight="bold" font-size="14.00">name</text>
</g>
<!-- pc -->
<g id="node3" class="node">
<title>pc</title>
<polygon fill="none" stroke="black" points="268.88,-63.4 268.88,-85.9 431.63,-85.9 431.63,-63.4 268.88,-63.4"/>
<text text-anchor="start" x="284.26" y="-70.6" font-family="Courier,monospace" font-weight="bold" font-size="14.00">PEOPLE_COMPANIES</text>
<polygon fill="none" stroke="black" points="268.88,-40.9 268.88,-63.4 431.63,-63.4 431.63,-40.9 268.88,-40.9"/>
<text text-anchor="start" x="292.51" y="-47.1" font-family="Courier,monospace" font-size="14.00">person_id (PK)</text>
<polygon fill="none" stroke="black" points="268.88,-18.4 268.88,-40.9 431.63,-40.9 431.63,-18.4 268.88,-18.4"/>
<text text-anchor="start" x="271.88" y="-24.6" font-family="Courier,monospace" font-size="14.00">company_id (PK, IX)</text>
</g>
<!-- companies -->
<g id="node4" class="node">
<title>companies</title>
<polygon fill="none" stroke="black" points="483.63,-63.4 483.63,-85.9 563.88,-85.9 563.88,-63.4 483.63,-63.4"/>
<text text-anchor="start" x="486.63" y="-70.6" font-family="Courier,monospace" font-weight="bold" font-size="14.00">COMPANIES</text>
<polygon fill="none" stroke="black" points="483.63,-40.9 483.63,-63.4 563.88,-63.4 563.88,-40.9 483.63,-40.9"/>
<text text-anchor="start" x="494.88" y="-47.1" font-family="Courier,monospace" font-size="14.00">id (PK)</text>
<polygon fill="none" stroke="black" points="483.63,-18.4 483.63,-40.9 563.88,-40.9 563.88,-18.4 483.63,-18.4"/>
<text text-anchor="start" x="486.63" y="-24.6" font-family="Courier,monospace" font-size="14.00">name (IX)</text>
</g>
<!-- pc&#45;&gt;companies -->
<g id="edge3" class="edge">
<title>pc:cid&#45;&gt;companies:cid</title>
<path fill="none" stroke="blue" stroke-width="5" d="M432.63,-29.65C451.29,-22.76 456.4,-34.33 468.71,-44.18"/>
<polygon fill="blue" stroke="blue" stroke-width="5" points="466.37,-47.88 477.22,-49.05 470.72,-40.28 466.37,-47.88"/>
</g>
<!-- pc&#45;&gt;companies -->
<g id="edge6" class="edge">
<title>pc:cid&#45;&gt;companies:cid</title>
<path fill="none" stroke="green" stroke-width="5" d="M446.65,-37.7C458.83,-47.48 463.97,-58.9 482.35,-52.25"/>
<polygon fill="green" stroke="green" stroke-width="5" points="449.16,-34.1 438.31,-32.88 444.78,-41.67 449.16,-34.1"/>
</g>
<!-- pc&#45;&gt;companies -->
<!-- companies&#45;&gt;start_c -->
<g id="edge4" class="edge">
<title>companies:name&#45;&gt;start_c:w</title>
<path fill="none" stroke="blue" stroke-width="5" d="M564.88,-29.65C580.89,-22.97 584.94,-33.64 594.78,-43.27"/>
<polygon fill="blue" stroke="blue" stroke-width="5" points="591.99,-46.66 602.72,-48.65 596.9,-39.42 591.99,-46.66"/>
</g>
<!-- companies&#45;&gt;start_c -->
<g id="edge5" class="edge">
<title>companies:name&#45;&gt;start_c:w</title>
<path fill="none" stroke="green" stroke-width="5" d="M578.51,-39.06C587.97,-48.54 592.16,-58.71 607.88,-52.15"/>
<polygon fill="green" stroke="green" stroke-width="5" points="581.19,-35.59 570.49,-33.44 576.17,-42.76 581.19,-35.59"/>
</g>
<!-- companies&#45;&gt;start_c -->
<!-- people&#45;&gt;pc -->
<g id="edge2" class="edge">
<title>people:pid&#45;&gt;pc:pid</title>
<path fill="none" stroke="blue" stroke-width="5" d="M217.88,-52.15C234.03,-45.61 241.37,-43.82 252.71,-46.79"/>
<polygon fill="blue" stroke="blue" stroke-width="5" points="251.11,-50.86 262,-50.07 254.03,-42.61 251.11,-50.86"/>
</g>
<!-- people&#45;&gt;pc -->
<g id="edge7" class="edge">
<title>people:pid&#45;&gt;pc:pid</title>
<path fill="none" stroke="green" stroke-width="5" d="M233.14,-57.53C244.36,-60.45 251.7,-58.69 267.62,-52.25"/>
<polygon fill="green" stroke="green" stroke-width="5" points="234.91,-53.52 224.02,-54.33 232,-61.77 234.91,-53.52"/>
</g>
<!-- people&#45;&gt;pc -->
</g>
</svg>
