<?xml version="1.0" encoding="UTF-8" standalone="no"?>
<!DOCTYPE svg PUBLIC "-//W3C//DTD SVG 1.1//EN"
 "http://www.w3.org/Graphics/SVG/1.1/DTD/svg11.dtd">
<!-- Generated by graphviz version 12.2.1 (20241206.2353)
 -->
<!-- Pages: 1 -->
<svg width="918pt" height="332pt"
 viewBox="0.00 0.00 918.18 332.00" xmlns="http://www.w3.org/2000/svg" xmlns:xlink="http://www.w3.org/1999/xlink">
<g id="graph0" class="graph" transform="scale(1 1) rotate(0) translate(4 328)">
<polygon fill="white" stroke="none" points="-4,4 -4,-328 914.18,-328 914.18,4 -4,4"/>
<g id="clust2" class="cluster">
<title>cluster_pc</title>
<polygon fill="none" stroke="black" points="294.13,-8 294.13,-316 579.63,-316 579.63,-8 294.13,-8"/>
<text text-anchor="middle" x="436.88" y="-294.9" font-family="Courier,monospace" font-weight="bold" font-size="18.00">PEOPLE_COMPANIES</text>
</g>
<g id="clust4" class="cluster">
<title>cluster_companies</title>
<polygon fill="none" stroke="black" points="599.63,-13 599.63,-299 777.88,-299 777.88,-13 599.63,-13"/>
<text text-anchor="middle" x="688.76" y="-277.9" font-family="Courier,monospace" font-weight="bold" font-size="18.00">COMPANIES</text>
</g>
<g id="clust6" class="cluster">
<title>cluster_people</title>
<polygon fill="none" stroke="black" points="120.63,-19 120.63,-305 274.13,-305 274.13,-19 120.63,-19"/>
<text text-anchor="middle" x="197.38" y="-283.9" font-family="Courier,monospace" font-weight="bold" font-size="18.00">PEOPLE</text>
</g>
<!-- start_p -->
<g id="node1" class="node">
<title>start_p</title>
<ellipse fill="none" stroke="black" cx="46.32" cy="-136" rx="46.32" ry="46.32"/>
<text text-anchor="middle" x="46.32" y="-139.2" font-family="Courier,monospace" font-weight="bold" font-size="14.00">person</text>
<text text-anchor="middle" x="46.32" y="-122.7" font-family="Courier,monospace" font-weight="bold" font-size="14.00">name</text>
</g>
<!-- pk_people -->
<g id="node7" class="node">
<title>pk_people</title>
<polygon fill="none" stroke="black" points="157.26,-241.25 157.26,-263.75 237.51,-263.75 237.51,-241.25 157.26,-241.25"/>
<text text-anchor="start" x="160.26" y="-248.45" font-family="Courier,monospace" font-weight="bold" font-size="14.00">PK_PEOPLE</text>
<polygon fill="none" stroke="black" points="157.26,-218.75 157.26,-241.25 237.51,-241.25 237.51,-218.75 157.26,-218.75"/>
<text text-anchor="start" x="189.13" y="-224.95" font-family="Courier,monospace" font-size="14.00">id</text>
<polygon fill="none" stroke="black" points="157.26,-196.25 157.26,-218.75 237.51,-218.75 237.51,-196.25 157.26,-196.25"/>
<text text-anchor="start" x="180.88" y="-202.45" font-family="Courier,monospace" font-size="14.00">name</text>
</g>
<!-- start_p&#45;&gt;pk_people -->
<g id="edge11" class="edge">
<title>start_p&#45;&gt;pk_people:r</title>
<path fill="none" stroke="green" stroke-width="5" d="M90.34,-180.37C108.94,-194.95 131.99,-207.5 156.26,-207.5"/>
<polygon fill="green" stroke="green" stroke-width="5" points="93.42,-177.25 82.97,-174.11 87.76,-183.92 93.42,-177.25"/>
</g>
<!-- ix_people -->
<g id="node8" class="node">
<title>ix_people</title>
<polygon fill="none" stroke="black" points="136.63,-76.25 136.63,-98.75 258.13,-98.75 258.13,-76.25 136.63,-76.25"/>
<text text-anchor="start" x="139.63" y="-83.45" font-family="Courier,monospace" font-weight="bold" font-size="14.00">IX_PEOPLE_NAME</text>
<polygon fill="none" stroke="black" points="136.63,-53.75 136.63,-76.25 258.13,-76.25 258.13,-53.75 136.63,-53.75"/>
<text text-anchor="start" x="180.88" y="-59.95" font-family="Courier,monospace" font-size="14.00">name</text>
<polygon fill="none" stroke="black" points="136.63,-31.25 136.63,-53.75 258.13,-53.75 258.13,-31.25 136.63,-31.25"/>
<text text-anchor="start" x="189.13" y="-37.45" font-family="Courier,monospace" font-size="14.00">id</text>
</g>
<!-- start_p&#45;&gt;ix_people -->
<g id="edge4" class="edge">
<title>start_p&#45;&gt;ix_people:r</title>
<path fill="none" stroke="blue" stroke-width="5" d="M74.09,-98.84C86.26,-85.48 101.96,-72.44 119.8,-67.3"/>
<polygon fill="blue" stroke="blue" stroke-width="5" points="120.19,-71.66 129.46,-65.9 118.93,-63 120.19,-71.66"/>
</g>
<!-- start_c -->
<g id="node2" class="node">
<title>start_c</title>
<ellipse fill="none" stroke="black" cx="858.03" cy="-130" rx="52.15" ry="52.15"/>
<text text-anchor="middle" x="858.03" y="-133.2" font-family="Courier,monospace" font-weight="bold" font-size="14.00">company</text>
<text text-anchor="middle" x="858.03" y="-116.7" font-family="Courier,monospace" font-weight="bold" font-size="14.00">name</text>
</g>
<!-- pk_pc -->
<g id="node3" class="node">
<title>pk_pc</title>
<polygon fill="none" stroke="black" points="355.51,-65.25 355.51,-87.75 518.26,-87.75 518.26,-65.25 355.51,-65.25"/>
<text text-anchor="start" x="358.51" y="-72.45" font-family="Courier,monospace" font-weight="bold" font-size="14.00">PK_PEOPLE_COMPANIES</text>
<polygon fill="none" stroke="black" points="355.51,-42.75 355.51,-65.25 518.26,-65.25 518.26,-42.75 355.51,-42.75"/>
<text text-anchor="start" x="399.76" y="-48.95" font-family="Courier,monospace" font-size="14.00">person_id</text>
<polygon fill="none" stroke="black" points="355.51,-20.25 355.51,-42.75 518.26,-42.75 518.26,-20.25 355.51,-20.25"/>
<text text-anchor="start" x="395.63" y="-26.45" font-family="Courier,monospace" font-size="14.00">company_id</text>
</g>
<!-- ix_pc -->
<g id="node4" class="node">
<title>ix_pc</title>
<polygon fill="none" stroke="black" points="310.13,-252.5 310.13,-275 563.63,-275 563.63,-252.5 310.13,-252.5"/>
<text text-anchor="start" x="313.13" y="-259.7" font-family="Courier,monospace" font-weight="bold" font-size="14.00">IX_PEOPLE_COMPANIES_COMPANY_ID</text>
<polygon fill="none" stroke="black" points="310.13,-230 310.13,-252.5 563.63,-252.5 563.63,-230 310.13,-230"/>
<text text-anchor="start" x="395.63" y="-236.2" font-family="Courier,monospace" font-size="14.00">company_id</text>
<polygon fill="none" stroke="black" points="310.13,-207.5 310.13,-230 563.63,-230 563.63,-207.5 310.13,-207.5"/>
<text text-anchor="start" x="399.76" y="-213.7" font-family="Courier,monospace" font-size="14.00">person_id</text>
<polygon fill="none" stroke="black" points="310.13,-185 310.13,-207.5 563.63,-207.5 563.63,-185 310.13,-185"/>
<text text-anchor="start" x="395.63" y="-191.2" font-family="Courier,monospace" font-size="14.00">company_id</text>
</g>
<!-- pk_pc&#45;&gt;ix_pc -->
<!-- pk_companies -->
<g id="node5" class="node">
<title>pk_companies</title>
<polygon fill="none" stroke="black" points="636.26,-70.25 636.26,-92.75 741.26,-92.75 741.26,-70.25 636.26,-70.25"/>
<text text-anchor="start" x="639.26" y="-77.45" font-family="Courier,monospace" font-weight="bold" font-size="14.00">PK_COMPANIES</text>
<polygon fill="none" stroke="black" points="636.26,-47.75 636.26,-70.25 741.26,-70.25 741.26,-47.75 636.26,-47.75"/>
<text text-anchor="start" x="680.51" y="-53.95" font-family="Courier,monospace" font-size="14.00">id</text>
<polygon fill="none" stroke="black" points="636.26,-25.25 636.26,-47.75 741.26,-47.75 741.26,-25.25 636.26,-25.25"/>
<text text-anchor="start" x="672.26" y="-31.45" font-family="Courier,monospace" font-size="14.00">name</text>
</g>
<!-- pk_pc&#45;&gt;pk_companies -->
<g id="edge6" class="edge">
<title>pk_pc:r&#45;&gt;pk_companies:l</title>
<path fill="none" stroke="blue" stroke-width="5" d="M519.26,-31.5C566.45,-31.5 579.56,-53.31 619.3,-58.09"/>
<polygon fill="blue" stroke="blue" stroke-width="5" points="618.79,-62.44 629.03,-58.64 619.3,-53.7 618.79,-62.44"/>
</g>
<!-- ix_companies -->
<g id="node6" class="node">
<title>ix_companies</title>
<polygon fill="none" stroke="black" points="615.63,-235.25 615.63,-257.75 761.88,-257.75 761.88,-235.25 615.63,-235.25"/>
<text text-anchor="start" x="618.63" y="-242.45" font-family="Courier,monospace" font-weight="bold" font-size="14.00">IX_COMPANIES_NAME</text>
<polygon fill="none" stroke="black" points="615.63,-212.75 615.63,-235.25 761.88,-235.25 761.88,-212.75 615.63,-212.75"/>
<text text-anchor="start" x="672.26" y="-218.95" font-family="Courier,monospace" font-size="14.00">name</text>
<polygon fill="none" stroke="black" points="615.63,-190.25 615.63,-212.75 761.88,-212.75 761.88,-190.25 615.63,-190.25"/>
<text text-anchor="start" x="680.51" y="-196.45" font-family="Courier,monospace" font-size="14.00">id</text>
</g>
<!-- ix_pc&#45;&gt;ix_companies -->
<g id="edge9" class="edge">
<title>ix_pc:l&#45;&gt;ix_companies:l</title>
<path fill="none" stroke="green" stroke-width="5" d="M579.7,-235.72C591.77,-224.8 592.9,-201.5 614.63,-201.5"/>
<polygon fill="green" stroke="green" stroke-width="5" points="578.37,-231.55 570.49,-239.1 581.38,-239.77 578.37,-231.55"/>
</g>
<!-- pk_companies&#45;&gt;start_c -->
<g id="edge7" class="edge">
<title>pk_companies:r&#45;&gt;start_c</title>
<path fill="none" stroke="blue" stroke-width="5" d="M742.26,-36.5C771.4,-36.5 797.24,-54.84 816.99,-75.27"/>
<polygon fill="blue" stroke="blue" stroke-width="5" points="813.49,-77.93 823.43,-82.44 820,-72.08 813.49,-77.93"/>
</g>
<!-- pk_companies&#45;&gt;ix_companies -->
<!-- ix_companies&#45;&gt;start_c -->
<g id="edge8" class="edge">
<title>ix_companies:r&#45;&gt;start_c</title>
<path fill="none" stroke="green" stroke-width="5" d="M778.78,-221.7C801.39,-215.11 819.68,-195.38 832.88,-175.9"/>
<polygon fill="green" stroke="green" stroke-width="5" points="778.33,-217.35 769.05,-223.11 779.58,-226.01 778.33,-217.35"/>
</g>
<!-- pk_people&#45;&gt;ix_pc -->
<g id="edge10" class="edge">
<title>pk_people:l&#45;&gt;ix_pc:r</title>
<path fill="none" stroke="green" stroke-width="5" d="M254.67,-228.88C273.99,-226.03 283.55,-218.75 309.13,-218.75"/>
<polygon fill="green" stroke="green" stroke-width="5" points="254.4,-224.51 244.73,-229.57 255.01,-233.24 254.4,-224.51"/>
</g>
<!-- ix_people&#45;&gt;pk_pc -->
<g id="edge5" class="edge">
<title>ix_people:l&#45;&gt;pk_pc:l</title>
<path fill="none" stroke="blue" stroke-width="5" d="M259.13,-42.5C295.99,-42.5 308.47,-51.07 338.66,-53.41"/>
<polygon fill="blue" stroke="blue" stroke-width="5" points="338.12,-57.77 348.27,-53.77 338.44,-49.03 338.12,-57.77"/>
</g>
<!-- ix_people&#45;&gt;pk_people -->
</g>
</svg>
