<?xml version="1.0" encoding="UTF-8" standalone="no"?>
<!DOCTYPE svg PUBLIC "-//W3C//DTD SVG 1.1//EN"
 "http://www.w3.org/Graphics/SVG/1.1/DTD/svg11.dtd">
<!-- Generated by graphviz version 12.2.1 (20241206.2353)
 -->
<!-- Pages: 1 -->
<svg width="918pt" height="316pt"
 viewBox="0.00 0.00 918.18 316.00" xmlns="http://www.w3.org/2000/svg" xmlns:xlink="http://www.w3.org/1999/xlink">
<g id="graph0" class="graph" transform="scale(1 1) rotate(0) translate(4 312)">
<polygon fill="white" stroke="none" points="-4,4 -4,-312 914.18,-312 914.18,4 -4,4"/>
<g id="clust2" class="cluster">
<title>cluster_pc</title>
<polygon fill="none" stroke="black" points="294.13,-14 294.13,-300 579.63,-300 579.63,-14 294.13,-14"/>
<text text-anchor="middle" x="436.88" y="-278.9" font-family="Courier,monospace" font-weight="bold" font-size="18.00">PEOPLE_COMPANIES</text>
</g>
<g id="clust4" class="cluster">
<title>cluster_companies</title>
<polygon fill="none" stroke="black" points="599.63,-8 599.63,-294 777.88,-294 777.88,-8 599.63,-8"/>
<text text-anchor="middle" x="688.76" y="-272.9" font-family="Courier,monospace" font-weight="bold" font-size="18.00">COMPANIES</text>
</g>
<g id="clust6" class="cluster">
<title>cluster_people</title>
<polygon fill="none" stroke="black" points="120.63,-8 120.63,-294 274.13,-294 274.13,-8 120.63,-8"/>
<text text-anchor="middle" x="197.38" y="-272.9" font-family="Courier,monospace" font-weight="bold" font-size="18.00">PEOPLE</text>
</g>
<!-- start_p -->
<g id="node1" class="node">
<title>start_p</title>
<ellipse fill="none" stroke="black" cx="46.32" cy="-125" rx="46.32" ry="46.32"/>
<text text-anchor="middle" x="46.32" y="-128.2" font-family="Courier,monospace" font-weight="bold" font-size="14.00">person</text>
<text text-anchor="middle" x="46.32" y="-111.7" font-family="Courier,monospace" font-weight="bold" font-size="14.00">name</text>
</g>
<!-- pk_people -->
<g id="node7" class="node">
<title>pk_people</title>
<polygon fill="none" stroke="black" points="157.26,-230.25 157.26,-252.75 237.51,-252.75 237.51,-230.25 157.26,-230.25"/>
<text text-anchor="start" x="160.26" y="-237.45" font-family="Courier,monospace" font-weight="bold" font-size="14.00">PK_PEOPLE</text>
<polygon fill="none" stroke="black" points="157.26,-207.75 157.26,-230.25 237.51,-230.25 237.51,-207.75 157.26,-207.75"/>
<text text-anchor="start" x="189.13" y="-213.95" font-family="Courier,monospace" font-size="14.00">id</text>
<polygon fill="none" stroke="black" points="157.26,-185.25 157.26,-207.75 237.51,-207.75 237.51,-185.25 157.26,-185.25"/>
<text text-anchor="start" x="180.88" y="-191.45" font-family="Courier,monospace" font-size="14.00">name</text>
</g>
<!-- start_p&#45;&gt;pk_people -->
<g id="edge11" class="edge">
<title>start_p&#45;&gt;pk_people:r</title>
<path fill="none" stroke="green" stroke-width="5" d="M90.34,-169.37C108.94,-183.95 131.99,-196.5 156.26,-196.5"/>
<polygon fill="green" stroke="green" stroke-width="5" points="93.42,-166.25 82.97,-163.11 87.76,-172.92 93.42,-166.25"/>
</g>
<!-- ix_people -->
<g id="node8" class="node">
<title>ix_people</title>
<polygon fill="none" stroke="black" points="136.63,-65.25 136.63,-87.75 258.13,-87.75 258.13,-65.25 136.63,-65.25"/>
<text text-anchor="start" x="139.63" y="-72.45" font-family="Courier,monospace" font-weight="bold" font-size="14.00">IX_PEOPLE_NAME</text>
<polygon fill="none" stroke="black" points="136.63,-42.75 136.63,-65.25 258.13,-65.25 258.13,-42.75 136.63,-42.75"/>
<text text-anchor="start" x="180.88" y="-48.95" font-family="Courier,monospace" font-size="14.00">name</text>
<polygon fill="none" stroke="black" points="136.63,-20.25 136.63,-42.75 258.13,-42.75 258.13,-20.25 136.63,-20.25"/>
<text text-anchor="start" x="189.13" y="-26.45" font-family="Courier,monospace" font-size="14.00">id</text>
</g>
<!-- start_p&#45;&gt;ix_people -->
<g id="edge4" class="edge">
<title>start_p&#45;&gt;ix_people:r</title>
<path fill="none" stroke="blue" stroke-width="5" d="M74.09,-87.84C86.26,-74.48 101.96,-61.44 119.8,-56.3"/>
<polygon fill="blue" stroke="blue" stroke-width="5" points="120.19,-60.66 129.46,-54.9 118.93,-52 120.19,-60.66"/>
</g>
<!-- start_c -->
<g id="node2" class="node">
<title>start_c</title>
<ellipse fill="none" stroke="black" cx="858.03" cy="-125" rx="52.15" ry="52.15"/>
<text text-anchor="middle" x="858.03" y="-128.2" font-family="Courier,monospace" font-weight="bold" font-size="14.00">company</text>
<text text-anchor="middle" x="858.03" y="-111.7" font-family="Courier,monospace" font-weight="bold" font-size="14.00">name</text>
</g>
<!-- pk_pc -->
<g id="node3" class="node">
<title>pk_pc</title>
<polygon fill="none" stroke="black" points="355.51,-71.25 355.51,-93.75 518.26,-93.75 518.26,-71.25 355.51,-71.25"/>
<text text-anchor="start" x="358.51" y="-78.45" font-family="Courier,monospace" font-weight="bold" font-size="14.00">PK_PEOPLE_COMPANIES</text>
<polygon fill="none" stroke="black" points="355.51,-48.75 355.51,-71.25 518.26,-71.25 518.26,-48.75 355.51,-48.75"/>
<text text-anchor="start" x="399.76" y="-54.95" font-family="Courier,monospace" font-size="14.00">person_id</text>
<polygon fill="none" stroke="black" points="355.51,-26.25 355.51,-48.75 518.26,-48.75 518.26,-26.25 355.51,-26.25"/>
<text text-anchor="start" x="395.63" y="-32.45" font-family="Courier,monospace" font-size="14.00">company_id</text>
</g>
<!-- ix_pc -->
<g id="node4" class="node">
<title>ix_pc</title>
<polygon fill="none" stroke="black" points="310.13,-236.25 310.13,-258.75 563.63,-258.75 563.63,-236.25 310.13,-236.25"/>
<text text-anchor="start" x="313.13" y="-243.45" font-family="Courier,monospace" font-weight="bold" font-size="14.00">IX_PEOPLE_COMPANIES_COMPANY_ID</text>
<polygon fill="none" stroke="black" points="310.13,-213.75 310.13,-236.25 563.63,-236.25 563.63,-213.75 310.13,-213.75"/>
<text text-anchor="start" x="395.63" y="-219.95" font-family="Courier,monospace" font-size="14.00">company_id</text>
<polygon fill="none" stroke="black" points="310.13,-191.25 310.13,-213.75 563.63,-213.75 563.63,-191.25 310.13,-191.25"/>
<text text-anchor="start" x="399.76" y="-197.45" font-family="Courier,monospace" font-size="14.00">person_id</text>
</g>
<!-- pk_pc&#45;&gt;ix_pc -->
<!-- pk_companies -->
<g id="node5" class="node">
<title>pk_companies</title>
<polygon fill="none" stroke="black" points="636.26,-65.25 636.26,-87.75 741.26,-87.75 741.26,-65.25 636.26,-65.25"/>
<text text-anchor="start" x="639.26" y="-72.45" font-family="Courier,monospace" font-weight="bold" font-size="14.00">PK_COMPANIES</text>
<polygon fill="none" stroke="black" points="636.26,-42.75 636.26,-65.25 741.26,-65.25 741.26,-42.75 636.26,-42.75"/>
<text text-anchor="start" x="680.51" y="-48.95" font-family="Courier,monospace" font-size="14.00">id</text>
<polygon fill="none" stroke="black" points="636.26,-20.25 636.26,-42.75 741.26,-42.75 741.26,-20.25 636.26,-20.25"/>
<text text-anchor="start" x="672.26" y="-26.45" font-family="Courier,monospace" font-size="14.00">name</text>
</g>
<!-- pk_pc&#45;&gt;pk_companies -->
<g id="edge6" class="edge">
<title>pk_pc:r&#45;&gt;pk_companies:l</title>
<path fill="none" stroke="blue" stroke-width="5" d="M519.26,-37.5C565.53,-37.5 580.04,-50.53 619.25,-53.43"/>
<polygon fill="blue" stroke="blue" stroke-width="5" points="618.87,-57.8 629.02,-53.78 619.18,-49.05 618.87,-57.8"/>
</g>
<!-- ix_companies -->
<g id="node6" class="node">
<title>ix_companies</title>
<polygon fill="none" stroke="black" points="615.63,-230.25 615.63,-252.75 761.88,-252.75 761.88,-230.25 615.63,-230.25"/>
<text text-anchor="start" x="618.63" y="-237.45" font-family="Courier,monospace" font-weight="bold" font-size="14.00">IX_COMPANIES_NAME</text>
<polygon fill="none" stroke="black" points="615.63,-207.75 615.63,-230.25 761.88,-230.25 761.88,-207.75 615.63,-207.75"/>
<text text-anchor="start" x="672.26" y="-213.95" font-family="Courier,monospace" font-size="14.00">name</text>
<polygon fill="none" stroke="black" points="615.63,-185.25 615.63,-207.75 761.88,-207.75 761.88,-185.25 615.63,-185.25"/>
<text text-anchor="start" x="680.51" y="-191.45" font-family="Courier,monospace" font-size="14.00">id</text>
</g>
<!-- ix_pc&#45;&gt;ix_companies -->
<g id="edge9" class="edge">
<title>ix_pc:l&#45;&gt;ix_companies:l</title>
<path fill="none" stroke="green" stroke-width="5" d="M580,-220.29C591.39,-212.2 595.65,-196.5 614.63,-196.5"/>
<polygon fill="green" stroke="green" stroke-width="5" points="578.88,-216.06 570.59,-223.17 581.44,-224.43 578.88,-216.06"/>
</g>
<!-- pk_companies&#45;&gt;start_c -->
<g id="edge7" class="edge">
<title>pk_companies:r&#45;&gt;start_c</title>
<path fill="none" stroke="blue" stroke-width="5" d="M742.26,-31.5C771.4,-31.5 797.24,-49.84 816.99,-70.27"/>
<polygon fill="blue" stroke="blue" stroke-width="5" points="813.49,-72.93 823.43,-77.44 820,-67.08 813.49,-72.93"/>
</g>
<!-- pk_companies&#45;&gt;ix_companies -->
<!-- ix_companies&#45;&gt;start_c -->
<g id="edge8" class="edge">
<title>ix_companies:r&#45;&gt;start_c</title>
<path fill="none" stroke="green" stroke-width="5" d="M778.78,-216.7C801.39,-210.11 819.68,-190.38 832.88,-170.9"/>
<polygon fill="green" stroke="green" stroke-width="5" points="778.33,-212.35 769.05,-218.11 779.58,-221.01 778.33,-212.35"/>
</g>
<!-- pk_people&#45;&gt;ix_pc -->
<g id="edge10" class="edge">
<title>pk_people:l&#45;&gt;ix_pc:r</title>
<path fill="none" stroke="green" stroke-width="5" d="M254.52,-217.42C274.05,-213.29 283.07,-202.5 309.13,-202.5"/>
<polygon fill="green" stroke="green" stroke-width="5" points="254.23,-213.05 244.71,-218.39 255.09,-221.76 254.23,-213.05"/>
</g>
<!-- ix_people&#45;&gt;pk_pc -->
<g id="edge5" class="edge">
<title>ix_people:l&#45;&gt;pk_pc:l</title>
<path fill="none" stroke="blue" stroke-width="5" d="M259.13,-31.5C297.5,-31.5 307.78,-52.93 338.68,-58.63"/>
<polygon fill="blue" stroke="blue" stroke-width="5" points="337.95,-62.95 348.29,-59.46 338.71,-54.24 337.95,-62.95"/>
</g>
<!-- ix_people&#45;&gt;pk_people -->
</g>
</svg>
