<?xml version="1.0" encoding="UTF-8" standalone="no"?>
<!DOCTYPE svg PUBLIC "-//W3C//DTD SVG 1.1//EN"
 "http://www.w3.org/Graphics/SVG/1.1/DTD/svg11.dtd">
<!-- Generated by graphviz version 12.2.1 (20241206.2353)
 -->
<!-- Pages: 1 -->
<svg width="918pt" height="383pt"
 viewBox="0.00 0.00 918.18 383.00" xmlns="http://www.w3.org/2000/svg" xmlns:xlink="http://www.w3.org/1999/xlink">
<g id="graph0" class="graph" transform="scale(1 1) rotate(0) translate(4 379)">
<polygon fill="white" stroke="none" points="-4,4 -4,-379 914.18,-379 914.18,4 -4,4"/>
<g id="clust2" class="cluster">
<title>cluster_pc</title>
<polygon fill="none" stroke="black" points="294.13,-14 294.13,-367 579.63,-367 579.63,-14 294.13,-14"/>
<text text-anchor="middle" x="436.88" y="-345.9" font-family="Courier,monospace" font-weight="bold" font-size="18.00">PEOPLE_COMPANIES</text>
</g>
<g id="clust5" class="cluster">
<title>cluster_companies</title>
<polygon fill="none" stroke="black" points="599.63,-8 599.63,-361 777.88,-361 777.88,-8 599.63,-8"/>
<text text-anchor="middle" x="688.76" y="-339.9" font-family="Courier,monospace" font-weight="bold" font-size="18.00">COMPANIES</text>
</g>
<g id="clust8" class="cluster">
<title>cluster_people</title>
<polygon fill="none" stroke="black" points="120.63,-8 120.63,-361 274.13,-361 274.13,-8 120.63,-8"/>
<text text-anchor="middle" x="197.38" y="-339.9" font-family="Courier,monospace" font-weight="bold" font-size="18.00">PEOPLE</text>
</g>
<!-- start_p -->
<g id="node1" class="node">
<title>start_p</title>
<ellipse fill="none" stroke="black" cx="46.32" cy="-112" rx="46.32" ry="46.32"/>
<text text-anchor="middle" x="46.32" y="-115.2" font-family="Courier,monospace" font-weight="bold" font-size="14.00">person</text>
<text text-anchor="middle" x="46.32" y="-98.7" font-family="Courier,monospace" font-weight="bold" font-size="14.00">name</text>
</g>
<!-- ix_people -->
<g id="node10" class="node">
<title>ix_people</title>
<polygon fill="none" stroke="black" points="136.63,-87.5 136.63,-110 258.13,-110 258.13,-87.5 136.63,-87.5"/>
<text text-anchor="start" x="139.63" y="-94.7" font-family="Courier,monospace" font-weight="bold" font-size="14.00">IX_PEOPLE_NAME</text>
<polygon fill="none" stroke="black" points="136.63,-65 136.63,-87.5 258.13,-87.5 258.13,-65 136.63,-65"/>
<text text-anchor="start" x="180.88" y="-71.2" font-family="Courier,monospace" font-size="14.00">name</text>
<polygon fill="none" stroke="black" points="136.63,-42.5 136.63,-65 258.13,-65 258.13,-42.5 136.63,-42.5"/>
<text text-anchor="start" x="189.13" y="-48.7" font-family="Courier,monospace" font-size="14.00">id</text>
<polygon fill="none" stroke="black" points="136.63,-20 136.63,-42.5 258.13,-42.5 258.13,-20 136.63,-20"/>
<text text-anchor="start" x="180.88" y="-26.2" font-family="Courier,monospace" font-size="14.00">ctid</text>
</g>
<!-- start_p&#45;&gt;ix_people -->
<g id="edge8" class="edge">
<title>start_p&#45;&gt;ix_people:name</title>
<path fill="none" stroke="blue" stroke-width="5" d="M86.43,-88.75C96.66,-84.06 108.1,-79.91 119.74,-77.77"/>
<polygon fill="blue" stroke="blue" stroke-width="5" points="119.89,-82.16 129.42,-76.85 119.05,-73.45 119.89,-82.16"/>
</g>
<!-- heap_people -->
<g id="node11" class="node">
<title>heap_people</title>
<polygon fill="none" stroke="black" points="149.01,-203.5 149.01,-226 245.76,-226 245.76,-203.5 149.01,-203.5"/>
<text text-anchor="start" x="152.01" y="-210.7" font-family="Courier,monospace" font-weight="bold" font-size="14.00">HEAP_PEOPLE</text>
<polygon fill="none" stroke="black" points="149.01,-181 149.01,-203.5 245.76,-203.5 245.76,-181 149.01,-181"/>
<text text-anchor="start" x="180.88" y="-187.2" font-family="Courier,monospace" font-size="14.00">ctid</text>
<polygon fill="none" stroke="black" points="149.01,-158.5 149.01,-181 245.76,-181 245.76,-158.5 149.01,-158.5"/>
<text text-anchor="start" x="189.13" y="-164.7" font-family="Courier,monospace" font-size="14.00">id</text>
<polygon fill="none" stroke="black" points="149.01,-136 149.01,-158.5 245.76,-158.5 245.76,-136 149.01,-136"/>
<text text-anchor="start" x="180.88" y="-142.2" font-family="Courier,monospace" font-size="14.00">name</text>
</g>
<!-- start_p&#45;&gt;heap_people -->
<g id="edge15" class="edge">
<title>start_p&#45;&gt;heap_people:name</title>
<path fill="none" stroke="green" stroke-width="5" d="M102.84,-138.8C117.22,-143.68 132.91,-147.25 148.01,-147.25"/>
<polygon fill="green" stroke="green" stroke-width="5" points="104.58,-134.78 93.68,-135.33 101.47,-142.97 104.58,-134.78"/>
</g>
<!-- start_c -->
<g id="node2" class="node">
<title>start_c</title>
<ellipse fill="none" stroke="black" cx="858.03" cy="-206" rx="52.15" ry="52.15"/>
<text text-anchor="middle" x="858.03" y="-209.2" font-family="Courier,monospace" font-weight="bold" font-size="14.00">company</text>
<text text-anchor="middle" x="858.03" y="-192.7" font-family="Courier,monospace" font-weight="bold" font-size="14.00">name</text>
</g>
<!-- pk_pc -->
<g id="node3" class="node">
<title>pk_pc</title>
<polygon fill="none" stroke="black" points="355.51,-71.25 355.51,-93.75 518.26,-93.75 518.26,-71.25 355.51,-71.25"/>
<text text-anchor="start" x="358.51" y="-78.45" font-family="Courier,monospace" font-weight="bold" font-size="14.00">PK_PEOPLE_COMPANIES</text>
<polygon fill="none" stroke="black" points="355.51,-48.75 355.51,-71.25 518.26,-71.25 518.26,-48.75 355.51,-48.75"/>
<text text-anchor="start" x="399.76" y="-54.95" font-family="Courier,monospace" font-size="14.00">person_id</text>
<polygon fill="none" stroke="black" points="355.51,-26.25 355.51,-48.75 518.26,-48.75 518.26,-26.25 355.51,-26.25"/>
<text text-anchor="start" x="395.63" y="-32.45" font-family="Courier,monospace" font-size="14.00">company_id</text>
</g>
<!-- ix_pc -->
<g id="node4" class="node">
<title>ix_pc</title>
<polygon fill="none" stroke="black" points="310.13,-303.5 310.13,-326 563.63,-326 563.63,-303.5 310.13,-303.5"/>
<text text-anchor="start" x="313.13" y="-310.7" font-family="Courier,monospace" font-weight="bold" font-size="14.00">IX_PEOPLE_COMPANIES_COMPANY_ID</text>
<polygon fill="none" stroke="black" points="310.13,-281 310.13,-303.5 563.63,-303.5 563.63,-281 310.13,-281"/>
<text text-anchor="start" x="395.63" y="-287.2" font-family="Courier,monospace" font-size="14.00">company_id</text>
<polygon fill="none" stroke="black" points="310.13,-258.5 310.13,-281 563.63,-281 563.63,-258.5 310.13,-258.5"/>
<text text-anchor="start" x="399.76" y="-264.7" font-family="Courier,monospace" font-size="14.00">person_id</text>
<polygon fill="none" stroke="black" points="310.13,-236 310.13,-258.5 563.63,-258.5 563.63,-236 310.13,-236"/>
<text text-anchor="start" x="420.38" y="-242.2" font-family="Courier,monospace" font-size="14.00">ctid</text>
</g>
<!-- pk_pc&#45;&gt;ix_pc -->
<!-- pk_companies -->
<g id="node6" class="node">
<title>pk_companies</title>
<polygon fill="none" stroke="black" points="636.26,-65.25 636.26,-87.75 741.26,-87.75 741.26,-65.25 636.26,-65.25"/>
<text text-anchor="start" x="639.26" y="-72.45" font-family="Courier,monospace" font-weight="bold" font-size="14.00">PK_COMPANIES</text>
<polygon fill="none" stroke="black" points="636.26,-42.75 636.26,-65.25 741.26,-65.25 741.26,-42.75 636.26,-42.75"/>
<text text-anchor="start" x="680.51" y="-48.95" font-family="Courier,monospace" font-size="14.00">id</text>
<polygon fill="none" stroke="black" points="636.26,-20.25 636.26,-42.75 741.26,-42.75 741.26,-20.25 636.26,-20.25"/>
<text text-anchor="start" x="672.26" y="-26.45" font-family="Courier,monospace" font-size="14.00">ctid</text>
</g>
<!-- pk_pc&#45;&gt;pk_companies -->
<g id="edge10" class="edge">
<title>pk_pc:cid&#45;&gt;pk_companies:cid</title>
<path fill="none" stroke="blue" stroke-width="5" d="M519.26,-37.5C565.53,-37.5 580.04,-50.53 619.25,-53.43"/>
<polygon fill="blue" stroke="blue" stroke-width="5" points="618.87,-57.8 629.02,-53.78 619.18,-49.05 618.87,-57.8"/>
</g>
<!-- ix_companies -->
<g id="node7" class="node">
<title>ix_companies</title>
<polygon fill="none" stroke="black" points="615.63,-297.5 615.63,-320 761.88,-320 761.88,-297.5 615.63,-297.5"/>
<text text-anchor="start" x="618.63" y="-304.7" font-family="Courier,monospace" font-weight="bold" font-size="14.00">IX_COMPANIES_NAME</text>
<polygon fill="none" stroke="black" points="615.63,-275 615.63,-297.5 761.88,-297.5 761.88,-275 615.63,-275"/>
<text text-anchor="start" x="672.26" y="-281.2" font-family="Courier,monospace" font-size="14.00">name</text>
<polygon fill="none" stroke="black" points="615.63,-252.5 615.63,-275 761.88,-275 761.88,-252.5 615.63,-252.5"/>
<text text-anchor="start" x="647.51" y="-258.7" font-family="Courier,monospace" font-size="14.00">company_id</text>
<polygon fill="none" stroke="black" points="615.63,-230 615.63,-252.5 761.88,-252.5 761.88,-230 615.63,-230"/>
<text text-anchor="start" x="672.26" y="-236.2" font-family="Courier,monospace" font-size="14.00">ctid</text>
</g>
<!-- ix_pc&#45;&gt;ix_companies -->
<g id="edge13" class="edge">
<title>ix_pc:cid&#45;&gt;ix_companies:cid</title>
<path fill="none" stroke="green" stroke-width="5" d="M580,-287.54C591.39,-279.45 595.65,-263.75 614.63,-263.75"/>
<polygon fill="green" stroke="green" stroke-width="5" points="578.88,-283.31 570.59,-290.42 581.44,-291.68 578.88,-283.31"/>
</g>
<!-- heap_pc -->
<g id="node5" class="node">
<title>heap_pc</title>
<polygon fill="none" stroke="black" points="314.26,-187.5 314.26,-210 559.51,-210 559.51,-187.5 314.26,-187.5"/>
<text text-anchor="start" x="317.26" y="-194.7" font-family="Courier,monospace" font-weight="bold" font-size="14.00">HEAP_PEOPLE_COMPANIES_COMPANY</text>
<polygon fill="none" stroke="black" points="314.26,-165 314.26,-187.5 559.51,-187.5 559.51,-165 314.26,-165"/>
<text text-anchor="start" x="420.38" y="-171.2" font-family="Courier,monospace" font-size="14.00">ctid</text>
<polygon fill="none" stroke="black" points="314.26,-142.5 314.26,-165 559.51,-165 559.51,-142.5 314.26,-142.5"/>
<text text-anchor="start" x="399.76" y="-148.7" font-family="Courier,monospace" font-size="14.00">person_id</text>
<polygon fill="none" stroke="black" points="314.26,-120 314.26,-142.5 559.51,-142.5 559.51,-120 314.26,-120"/>
<text text-anchor="start" x="395.63" y="-126.2" font-family="Courier,monospace" font-size="14.00">company_id</text>
</g>
<!-- heap_pc&#45;&gt;ix_pc -->
<!-- pk_companies&#45;&gt;ix_companies -->
<!-- heap_companies -->
<g id="node8" class="node">
<title>heap_companies</title>
<polygon fill="none" stroke="black" points="628.01,-181.5 628.01,-204 749.51,-204 749.51,-181.5 628.01,-181.5"/>
<text text-anchor="start" x="631.01" y="-188.7" font-family="Courier,monospace" font-weight="bold" font-size="14.00">HEAP_COMPANIES</text>
<polygon fill="none" stroke="black" points="628.01,-159 628.01,-181.5 749.51,-181.5 749.51,-159 628.01,-159"/>
<text text-anchor="start" x="672.26" y="-165.2" font-family="Courier,monospace" font-size="14.00">ctid</text>
<polygon fill="none" stroke="black" points="628.01,-136.5 628.01,-159 749.51,-159 749.51,-136.5 628.01,-136.5"/>
<text text-anchor="start" x="680.51" y="-142.7" font-family="Courier,monospace" font-size="14.00">id</text>
<polygon fill="none" stroke="black" points="628.01,-114 628.01,-136.5 749.51,-136.5 749.51,-114 628.01,-114"/>
<text text-anchor="start" x="672.26" y="-120.2" font-family="Courier,monospace" font-size="14.00">name</text>
</g>
<!-- pk_companies&#45;&gt;heap_companies -->
<g id="edge4" class="edge">
<title>pk_companies&#45;&gt;heap_companies</title>
<path fill="none" stroke="blue" stroke-width="5" d="M688.76,-91.73C688.76,-92.5 688.76,-93.27 688.76,-94.03"/>
<polygon fill="blue" stroke="blue" stroke-width="5" points="684.38,-93.89 688.76,-103.89 693.13,-93.89 684.38,-93.89"/>
</g>
<!-- ix_companies&#45;&gt;start_c -->
<g id="edge12" class="edge">
<title>ix_companies:name&#45;&gt;start_c</title>
<path fill="none" stroke="green" stroke-width="5" d="M778.67,-284.06C798.18,-278.67 815.11,-264.07 828.19,-248.94"/>
<polygon fill="green" stroke="green" stroke-width="5" points="778.36,-279.69 769.06,-285.39 779.57,-288.35 778.36,-279.69"/>
</g>
<!-- heap_companies&#45;&gt;start_c -->
<g id="edge11" class="edge">
<title>heap_companies:name&#45;&gt;start_c</title>
<path fill="none" stroke="blue" stroke-width="5" d="M750.51,-125.25C774.45,-125.25 796.4,-138.37 814.07,-154.03"/>
<polygon fill="blue" stroke="blue" stroke-width="5" points="810.87,-157.02 821.11,-160.82 816.95,-150.73 810.87,-157.02"/>
</g>
<!-- pk_people -->
<g id="node9" class="node">
<title>pk_people</title>
<polygon fill="none" stroke="black" points="157.26,-297.25 157.26,-319.75 237.51,-319.75 237.51,-297.25 157.26,-297.25"/>
<text text-anchor="start" x="160.26" y="-304.45" font-family="Courier,monospace" font-weight="bold" font-size="14.00">PK_PEOPLE</text>
<polygon fill="none" stroke="black" points="157.26,-274.75 157.26,-297.25 237.51,-297.25 237.51,-274.75 157.26,-274.75"/>
<text text-anchor="start" x="189.13" y="-280.95" font-family="Courier,monospace" font-size="14.00">id</text>
<polygon fill="none" stroke="black" points="157.26,-252.25 157.26,-274.75 237.51,-274.75 237.51,-252.25 157.26,-252.25"/>
<text text-anchor="start" x="180.88" y="-258.45" font-family="Courier,monospace" font-size="14.00">ctid</text>
</g>
<!-- pk_people&#45;&gt;ix_pc -->
<g id="edge14" class="edge">
<title>pk_people:pid&#45;&gt;ix_pc:pid</title>
<path fill="none" stroke="green" stroke-width="5" d="M254.51,-284.44C274.04,-280.37 283.09,-269.75 309.13,-269.75"/>
<polygon fill="green" stroke="green" stroke-width="5" points="254.24,-280.07 244.71,-285.4 255.09,-288.78 254.24,-280.07"/>
</g>
<!-- pk_people&#45;&gt;heap_people -->
<g id="edge7" class="edge">
<title>pk_people&#45;&gt;heap_people</title>
<path fill="none" stroke="green" stroke-width="5" d="M197.38,-248.69C197.38,-247.8 197.38,-246.92 197.38,-246.03"/>
<polygon fill="green" stroke="green" stroke-width="5" points="201.76,-246.05 197.38,-236.05 193.01,-246.05 201.76,-246.05"/>
</g>
<!-- ix_people&#45;&gt;pk_pc -->
<g id="edge9" class="edge">
<title>ix_people:pid&#45;&gt;pk_pc:pid</title>
<path fill="none" stroke="blue" stroke-width="5" d="M259.13,-53.75C295.64,-53.75 308.46,-58.37 338.31,-59.66"/>
<polygon fill="blue" stroke="blue" stroke-width="5" points="338.18,-64.04 348.27,-59.87 338.36,-55.29 338.18,-64.04"/>
</g>
<!-- ix_people&#45;&gt;pk_people -->
<!-- ix_people&#45;&gt;heap_people -->
</g>
</svg>
