<?xml version="1.0" encoding="UTF-8" standalone="no"?>
<!DOCTYPE svg PUBLIC "-//W3C//DTD SVG 1.1//EN"
 "http://www.w3.org/Graphics/SVG/1.1/DTD/svg11.dtd">
<!-- Generated by graphviz version 12.2.1 (20241206.2353)
 -->
<!-- Pages: 1 -->
<svg width="918pt" height="399pt"
 viewBox="0.00 0.00 918.18 399.00" xmlns="http://www.w3.org/2000/svg" xmlns:xlink="http://www.w3.org/1999/xlink">
<g id="graph0" class="graph" transform="scale(1 1) rotate(0) translate(4 395)">
<polygon fill="white" stroke="none" points="-4,4 -4,-395 914.18,-395 914.18,4 -4,4"/>
<g id="clust2" class="cluster">
<title>cluster_pc</title>
<polygon fill="none" stroke="black" points="294.13,-8 294.13,-383 579.63,-383 579.63,-8 294.13,-8"/>
<text text-anchor="middle" x="436.88" y="-361.9" font-family="Courier,monospace" font-weight="bold" font-size="18.00">PEOPLE_COMPANIES</text>
</g>
<g id="clust5" class="cluster">
<title>cluster_companies</title>
<polygon fill="none" stroke="black" points="599.63,-19 599.63,-372 777.88,-372 777.88,-19 599.63,-19"/>
<text text-anchor="middle" x="688.76" y="-350.9" font-family="Courier,monospace" font-weight="bold" font-size="18.00">COMPANIES</text>
</g>
<g id="clust8" class="cluster">
<title>cluster_people</title>
<polygon fill="none" stroke="black" points="120.63,-19 120.63,-372 274.13,-372 274.13,-19 120.63,-19"/>
<text text-anchor="middle" x="197.38" y="-350.9" font-family="Courier,monospace" font-weight="bold" font-size="18.00">PEOPLE</text>
</g>
<!-- start_p -->
<g id="node1" class="node">
<title>start_p</title>
<ellipse fill="none" stroke="black" cx="46.32" cy="-123" rx="46.32" ry="46.32"/>
<text text-anchor="middle" x="46.32" y="-126.2" font-family="Courier,monospace" font-weight="bold" font-size="14.00">person</text>
<text text-anchor="middle" x="46.32" y="-109.7" font-family="Courier,monospace" font-weight="bold" font-size="14.00">name</text>
</g>
<!-- ix_people -->
<g id="node10" class="node">
<title>ix_people</title>
<polygon fill="none" stroke="black" points="136.63,-98.5 136.63,-121 258.13,-121 258.13,-98.5 136.63,-98.5"/>
<text text-anchor="start" x="139.63" y="-105.7" font-family="Courier,monospace" font-weight="bold" font-size="14.00">IX_PEOPLE_NAME</text>
<polygon fill="none" stroke="black" points="136.63,-76 136.63,-98.5 258.13,-98.5 258.13,-76 136.63,-76"/>
<text text-anchor="start" x="180.88" y="-82.2" font-family="Courier,monospace" font-size="14.00">name</text>
<polygon fill="none" stroke="black" points="136.63,-53.5 136.63,-76 258.13,-76 258.13,-53.5 136.63,-53.5"/>
<text text-anchor="start" x="189.13" y="-59.7" font-family="Courier,monospace" font-size="14.00">id</text>
<polygon fill="none" stroke="black" points="136.63,-31 136.63,-53.5 258.13,-53.5 258.13,-31 136.63,-31"/>
<text text-anchor="start" x="180.88" y="-37.2" font-family="Courier,monospace" font-size="14.00">ctid</text>
</g>
<!-- start_p&#45;&gt;ix_people -->
<g id="edge8" class="edge">
<title>start_p&#45;&gt;ix_people:name</title>
<path fill="none" stroke="blue" stroke-width="5" d="M86.43,-99.75C96.66,-95.06 108.1,-90.91 119.74,-88.77"/>
<polygon fill="blue" stroke="blue" stroke-width="5" points="119.89,-93.16 129.42,-87.85 119.05,-84.45 119.89,-93.16"/>
</g>
<!-- heap_people -->
<g id="node11" class="node">
<title>heap_people</title>
<polygon fill="none" stroke="black" points="149.01,-214.5 149.01,-237 245.76,-237 245.76,-214.5 149.01,-214.5"/>
<text text-anchor="start" x="152.01" y="-221.7" font-family="Courier,monospace" font-weight="bold" font-size="14.00">HEAP_PEOPLE</text>
<polygon fill="none" stroke="black" points="149.01,-192 149.01,-214.5 245.76,-214.5 245.76,-192 149.01,-192"/>
<text text-anchor="start" x="180.88" y="-198.2" font-family="Courier,monospace" font-size="14.00">ctid</text>
<polygon fill="none" stroke="black" points="149.01,-169.5 149.01,-192 245.76,-192 245.76,-169.5 149.01,-169.5"/>
<text text-anchor="start" x="189.13" y="-175.7" font-family="Courier,monospace" font-size="14.00">id</text>
<polygon fill="none" stroke="black" points="149.01,-147 149.01,-169.5 245.76,-169.5 245.76,-147 149.01,-147"/>
<text text-anchor="start" x="180.88" y="-153.2" font-family="Courier,monospace" font-size="14.00">name</text>
</g>
<!-- start_p&#45;&gt;heap_people -->
<g id="edge15" class="edge">
<title>start_p&#45;&gt;heap_people:name</title>
<path fill="none" stroke="green" stroke-width="5" d="M102.84,-149.8C117.22,-154.68 132.91,-158.25 148.01,-158.25"/>
<polygon fill="green" stroke="green" stroke-width="5" points="104.58,-145.78 93.68,-146.33 101.47,-153.97 104.58,-145.78"/>
</g>
<!-- start_c -->
<g id="node2" class="node">
<title>start_c</title>
<ellipse fill="none" stroke="black" cx="858.03" cy="-217" rx="52.15" ry="52.15"/>
<text text-anchor="middle" x="858.03" y="-220.2" font-family="Courier,monospace" font-weight="bold" font-size="14.00">company</text>
<text text-anchor="middle" x="858.03" y="-203.7" font-family="Courier,monospace" font-weight="bold" font-size="14.00">name</text>
</g>
<!-- pk_pc -->
<g id="node3" class="node">
<title>pk_pc</title>
<polygon fill="none" stroke="black" points="355.51,-87.5 355.51,-110 518.26,-110 518.26,-87.5 355.51,-87.5"/>
<text text-anchor="start" x="358.51" y="-94.7" font-family="Courier,monospace" font-weight="bold" font-size="14.00">PK_PEOPLE_COMPANIES</text>
<polygon fill="none" stroke="black" points="355.51,-65 355.51,-87.5 518.26,-87.5 518.26,-65 355.51,-65"/>
<text text-anchor="start" x="399.76" y="-71.2" font-family="Courier,monospace" font-size="14.00">person_id</text>
<polygon fill="none" stroke="black" points="355.51,-42.5 355.51,-65 518.26,-65 518.26,-42.5 355.51,-42.5"/>
<text text-anchor="start" x="395.63" y="-48.7" font-family="Courier,monospace" font-size="14.00">company_id</text>
<polygon fill="none" stroke="black" points="355.51,-20 355.51,-42.5 518.26,-42.5 518.26,-20 355.51,-20"/>
<text text-anchor="start" x="420.38" y="-26.2" font-family="Courier,monospace" font-size="14.00">ctid</text>
</g>
<!-- ix_pc -->
<g id="node4" class="node">
<title>ix_pc</title>
<polygon fill="none" stroke="black" points="310.13,-319.5 310.13,-342 563.63,-342 563.63,-319.5 310.13,-319.5"/>
<text text-anchor="start" x="313.13" y="-326.7" font-family="Courier,monospace" font-weight="bold" font-size="14.00">IX_PEOPLE_COMPANIES_COMPANY_ID</text>
<polygon fill="none" stroke="black" points="310.13,-297 310.13,-319.5 563.63,-319.5 563.63,-297 310.13,-297"/>
<text text-anchor="start" x="395.63" y="-303.2" font-family="Courier,monospace" font-size="14.00">company_id</text>
<polygon fill="none" stroke="black" points="310.13,-274.5 310.13,-297 563.63,-297 563.63,-274.5 310.13,-274.5"/>
<text text-anchor="start" x="399.76" y="-280.7" font-family="Courier,monospace" font-size="14.00">person_id</text>
<polygon fill="none" stroke="black" points="310.13,-252 310.13,-274.5 563.63,-274.5 563.63,-252 310.13,-252"/>
<text text-anchor="start" x="420.38" y="-258.2" font-family="Courier,monospace" font-size="14.00">ctid</text>
</g>
<!-- pk_pc&#45;&gt;ix_pc -->
<!-- pk_companies -->
<g id="node6" class="node">
<title>pk_companies</title>
<polygon fill="none" stroke="black" points="636.26,-76.25 636.26,-98.75 741.26,-98.75 741.26,-76.25 636.26,-76.25"/>
<text text-anchor="start" x="639.26" y="-83.45" font-family="Courier,monospace" font-weight="bold" font-size="14.00">PK_COMPANIES</text>
<polygon fill="none" stroke="black" points="636.26,-53.75 636.26,-76.25 741.26,-76.25 741.26,-53.75 636.26,-53.75"/>
<text text-anchor="start" x="680.51" y="-59.95" font-family="Courier,monospace" font-size="14.00">id</text>
<polygon fill="none" stroke="black" points="636.26,-31.25 636.26,-53.75 741.26,-53.75 741.26,-31.25 636.26,-31.25"/>
<text text-anchor="start" x="672.26" y="-37.45" font-family="Courier,monospace" font-size="14.00">ctid</text>
</g>
<!-- pk_pc&#45;&gt;pk_companies -->
<g id="edge10" class="edge">
<title>pk_pc:cid&#45;&gt;pk_companies:cid</title>
<path fill="none" stroke="blue" stroke-width="5" d="M519.26,-53.75C565.19,-53.75 580.14,-62.6 619.05,-64.6"/>
<polygon fill="blue" stroke="blue" stroke-width="5" points="618.92,-68.97 629.02,-64.85 619.13,-60.23 618.92,-68.97"/>
</g>
<!-- ix_companies -->
<g id="node7" class="node">
<title>ix_companies</title>
<polygon fill="none" stroke="black" points="615.63,-308.5 615.63,-331 761.88,-331 761.88,-308.5 615.63,-308.5"/>
<text text-anchor="start" x="618.63" y="-315.7" font-family="Courier,monospace" font-weight="bold" font-size="14.00">IX_COMPANIES_NAME</text>
<polygon fill="none" stroke="black" points="615.63,-286 615.63,-308.5 761.88,-308.5 761.88,-286 615.63,-286"/>
<text text-anchor="start" x="672.26" y="-292.2" font-family="Courier,monospace" font-size="14.00">name</text>
<polygon fill="none" stroke="black" points="615.63,-263.5 615.63,-286 761.88,-286 761.88,-263.5 615.63,-263.5"/>
<text text-anchor="start" x="647.51" y="-269.7" font-family="Courier,monospace" font-size="14.00">company_id</text>
<polygon fill="none" stroke="black" points="615.63,-241 615.63,-263.5 761.88,-263.5 761.88,-241 615.63,-241"/>
<text text-anchor="start" x="672.26" y="-247.2" font-family="Courier,monospace" font-size="14.00">ctid</text>
</g>
<!-- ix_pc&#45;&gt;ix_companies -->
<g id="edge13" class="edge">
<title>ix_pc:cid&#45;&gt;ix_companies:cid</title>
<path fill="none" stroke="green" stroke-width="5" d="M579.97,-303.02C591.52,-293.59 594.57,-274.75 614.63,-274.75"/>
<polygon fill="green" stroke="green" stroke-width="5" points="578.58,-298.86 570.53,-306.24 581.41,-307.15 578.58,-298.86"/>
</g>
<!-- heap_pc -->
<g id="node5" class="node">
<title>heap_pc</title>
<polygon fill="none" stroke="black" points="314.26,-203.5 314.26,-226 559.51,-226 559.51,-203.5 314.26,-203.5"/>
<text text-anchor="start" x="317.26" y="-210.7" font-family="Courier,monospace" font-weight="bold" font-size="14.00">HEAP_PEOPLE_COMPANIES_COMPANY</text>
<polygon fill="none" stroke="black" points="314.26,-181 314.26,-203.5 559.51,-203.5 559.51,-181 314.26,-181"/>
<text text-anchor="start" x="420.38" y="-187.2" font-family="Courier,monospace" font-size="14.00">ctid</text>
<polygon fill="none" stroke="black" points="314.26,-158.5 314.26,-181 559.51,-181 559.51,-158.5 314.26,-158.5"/>
<text text-anchor="start" x="399.76" y="-164.7" font-family="Courier,monospace" font-size="14.00">person_id</text>
<polygon fill="none" stroke="black" points="314.26,-136 314.26,-158.5 559.51,-158.5 559.51,-136 314.26,-136"/>
<text text-anchor="start" x="395.63" y="-142.2" font-family="Courier,monospace" font-size="14.00">company_id</text>
</g>
<!-- heap_pc&#45;&gt;ix_pc -->
<!-- pk_companies&#45;&gt;ix_companies -->
<!-- heap_companies -->
<g id="node8" class="node">
<title>heap_companies</title>
<polygon fill="none" stroke="black" points="628.01,-192.5 628.01,-215 749.51,-215 749.51,-192.5 628.01,-192.5"/>
<text text-anchor="start" x="631.01" y="-199.7" font-family="Courier,monospace" font-weight="bold" font-size="14.00">HEAP_COMPANIES</text>
<polygon fill="none" stroke="black" points="628.01,-170 628.01,-192.5 749.51,-192.5 749.51,-170 628.01,-170"/>
<text text-anchor="start" x="672.26" y="-176.2" font-family="Courier,monospace" font-size="14.00">ctid</text>
<polygon fill="none" stroke="black" points="628.01,-147.5 628.01,-170 749.51,-170 749.51,-147.5 628.01,-147.5"/>
<text text-anchor="start" x="680.51" y="-153.7" font-family="Courier,monospace" font-size="14.00">id</text>
<polygon fill="none" stroke="black" points="628.01,-125 628.01,-147.5 749.51,-147.5 749.51,-125 628.01,-125"/>
<text text-anchor="start" x="672.26" y="-131.2" font-family="Courier,monospace" font-size="14.00">name</text>
</g>
<!-- pk_companies&#45;&gt;heap_companies -->
<g id="edge4" class="edge">
<title>pk_companies&#45;&gt;heap_companies</title>
<path fill="none" stroke="blue" stroke-width="5" d="M688.76,-102.73C688.76,-103.5 688.76,-104.27 688.76,-105.03"/>
<polygon fill="blue" stroke="blue" stroke-width="5" points="684.38,-104.89 688.76,-114.89 693.13,-104.89 684.38,-104.89"/>
</g>
<!-- ix_companies&#45;&gt;start_c -->
<g id="edge12" class="edge">
<title>ix_companies:name&#45;&gt;start_c</title>
<path fill="none" stroke="green" stroke-width="5" d="M778.67,-295.06C798.18,-289.67 815.11,-275.07 828.19,-259.94"/>
<polygon fill="green" stroke="green" stroke-width="5" points="778.36,-290.69 769.06,-296.39 779.57,-299.35 778.36,-290.69"/>
</g>
<!-- heap_companies&#45;&gt;start_c -->
<g id="edge11" class="edge">
<title>heap_companies:name&#45;&gt;start_c</title>
<path fill="none" stroke="blue" stroke-width="5" d="M750.51,-136.25C774.45,-136.25 796.4,-149.37 814.07,-165.03"/>
<polygon fill="blue" stroke="blue" stroke-width="5" points="810.87,-168.02 821.11,-171.82 816.95,-161.73 810.87,-168.02"/>
</g>
<!-- pk_people -->
<g id="node9" class="node">
<title>pk_people</title>
<polygon fill="none" stroke="black" points="157.26,-308.25 157.26,-330.75 237.51,-330.75 237.51,-308.25 157.26,-308.25"/>
<text text-anchor="start" x="160.26" y="-315.45" font-family="Courier,monospace" font-weight="bold" font-size="14.00">PK_PEOPLE</text>
<polygon fill="none" stroke="black" points="157.26,-285.75 157.26,-308.25 237.51,-308.25 237.51,-285.75 157.26,-285.75"/>
<text text-anchor="start" x="189.13" y="-291.95" font-family="Courier,monospace" font-size="14.00">id</text>
<polygon fill="none" stroke="black" points="157.26,-263.25 157.26,-285.75 237.51,-285.75 237.51,-263.25 157.26,-263.25"/>
<text text-anchor="start" x="180.88" y="-269.45" font-family="Courier,monospace" font-size="14.00">ctid</text>
</g>
<!-- pk_people&#45;&gt;ix_pc -->
<g id="edge14" class="edge">
<title>pk_people:pid&#45;&gt;ix_pc:pid</title>
<path fill="none" stroke="green" stroke-width="5" d="M254.67,-295.88C273.99,-293.03 283.55,-285.75 309.13,-285.75"/>
<polygon fill="green" stroke="green" stroke-width="5" points="254.4,-291.51 244.73,-296.57 255.01,-300.24 254.4,-291.51"/>
</g>
<!-- pk_people&#45;&gt;heap_people -->
<g id="edge7" class="edge">
<title>pk_people&#45;&gt;heap_people</title>
<path fill="none" stroke="green" stroke-width="5" d="M197.38,-259.69C197.38,-258.8 197.38,-257.92 197.38,-257.03"/>
<polygon fill="green" stroke="green" stroke-width="5" points="201.76,-257.05 197.38,-247.05 193.01,-257.05 201.76,-257.05"/>
</g>
<!-- ix_people&#45;&gt;pk_pc -->
<g id="edge9" class="edge">
<title>ix_people:pid&#45;&gt;pk_pc:pid</title>
<path fill="none" stroke="blue" stroke-width="5" d="M259.13,-64.75C295.99,-64.75 308.47,-73.32 338.66,-75.66"/>
<polygon fill="blue" stroke="blue" stroke-width="5" points="338.12,-80.02 348.27,-76.02 338.44,-71.28 338.12,-80.02"/>
</g>
<!-- ix_people&#45;&gt;pk_people -->
<!-- ix_people&#45;&gt;heap_people -->
</g>
</svg>
