<?xml version="1.0" encoding="UTF-8" standalone="no"?>
<!DOCTYPE svg PUBLIC "-//W3C//DTD SVG 1.1//EN"
 "http://www.w3.org/Graphics/SVG/1.1/DTD/svg11.dtd">
<!-- Generated by graphviz version 12.2.1 (20241206.2353)
 -->
<!-- Pages: 1 -->
<svg width="918pt" height="355pt"
 viewBox="0.00 0.00 918.18 355.00" xmlns="http://www.w3.org/2000/svg" xmlns:xlink="http://www.w3.org/1999/xlink">
<g id="graph0" class="graph" transform="scale(1 1) rotate(0) translate(4 351)">
<polygon fill="white" stroke="none" points="-4,4 -4,-351 914.18,-351 914.18,4 -4,4"/>
<g id="clust2" class="cluster">
<title>cluster_pc</title>
<polygon fill="none" stroke="black" points="294.13,-8 294.13,-339 579.63,-339 579.63,-8 294.13,-8"/>
<text text-anchor="middle" x="436.88" y="-317.9" font-family="Courier,monospace" font-weight="bold" font-size="18.00">PEOPLE_COMPANIES</text>
</g>
<g id="clust5" class="cluster">
<title>cluster_companies</title>
<polygon fill="none" stroke="black" points="599.63,-8 599.63,-339 777.88,-339 777.88,-8 599.63,-8"/>
<text text-anchor="middle" x="688.76" y="-317.9" font-family="Courier,monospace" font-weight="bold" font-size="18.00">COMPANIES</text>
</g>
<g id="clust9" class="cluster">
<title>cluster_people</title>
<polygon fill="none" stroke="black" points="120.63,-8 120.63,-339 274.13,-339 274.13,-8 120.63,-8"/>
<text text-anchor="middle" x="197.38" y="-317.9" font-family="Courier,monospace" font-weight="bold" font-size="18.00">PEOPLE</text>
</g>
<!-- start_p -->
<g id="node1" class="node">
<title>start_p</title>
<ellipse fill="none" stroke="black" cx="46.32" cy="-90" rx="46.32" ry="46.32"/>
<text text-anchor="middle" x="46.32" y="-93.2" font-family="Courier,monospace" font-weight="bold" font-size="14.00">person</text>
<text text-anchor="middle" x="46.32" y="-76.7" font-family="Courier,monospace" font-weight="bold" font-size="14.00">name</text>
</g>
<!-- ix_people -->
<g id="node10" class="node">
<title>ix_people</title>
<polygon fill="none" stroke="black" points="136.63,-65.25 136.63,-87.75 258.13,-87.75 258.13,-65.25 136.63,-65.25"/>
<text text-anchor="start" x="139.63" y="-72.45" font-family="Courier,monospace" font-weight="bold" font-size="14.00">IX_PEOPLE_NAME</text>
<polygon fill="none" stroke="black" points="136.63,-42.75 136.63,-65.25 258.13,-65.25 258.13,-42.75 136.63,-42.75"/>
<text text-anchor="start" x="180.88" y="-48.95" font-family="Courier,monospace" font-size="14.00">name</text>
<polygon fill="none" stroke="black" points="136.63,-20.25 136.63,-42.75 258.13,-42.75 258.13,-20.25 136.63,-20.25"/>
<text text-anchor="start" x="180.88" y="-26.45" font-family="Courier,monospace" font-size="14.00">ctid</text>
</g>
<!-- start_p&#45;&gt;ix_people -->
<g id="edge9" class="edge">
<title>start_p&#45;&gt;ix_people:name</title>
<path fill="none" stroke="blue" stroke-width="5" d="M86.41,-66.59C96.64,-61.86 108.09,-57.69 119.73,-55.54"/>
<polygon fill="blue" stroke="blue" stroke-width="5" points="119.89,-59.92 129.42,-54.6 119.05,-51.21 119.89,-59.92"/>
</g>
<!-- heap_people -->
<g id="node11" class="node">
<title>heap_people</title>
<polygon fill="none" stroke="black" points="149.01,-181.5 149.01,-204 245.76,-204 245.76,-181.5 149.01,-181.5"/>
<text text-anchor="start" x="152.01" y="-188.7" font-family="Courier,monospace" font-weight="bold" font-size="14.00">HEAP_PEOPLE</text>
<polygon fill="none" stroke="black" points="149.01,-159 149.01,-181.5 245.76,-181.5 245.76,-159 149.01,-159"/>
<text text-anchor="start" x="180.88" y="-165.2" font-family="Courier,monospace" font-size="14.00">ctid</text>
<polygon fill="none" stroke="black" points="149.01,-136.5 149.01,-159 245.76,-159 245.76,-136.5 149.01,-136.5"/>
<text text-anchor="start" x="189.13" y="-142.7" font-family="Courier,monospace" font-size="14.00">id</text>
<polygon fill="none" stroke="black" points="149.01,-114 149.01,-136.5 245.76,-136.5 245.76,-114 149.01,-114"/>
<text text-anchor="start" x="180.88" y="-120.2" font-family="Courier,monospace" font-size="14.00">name</text>
</g>
<!-- start_p&#45;&gt;heap_people -->
<g id="edge19" class="edge">
<title>start_p&#45;&gt;heap_people:name</title>
<path fill="none" stroke="green" stroke-width="5" d="M102.84,-116.8C117.22,-121.68 132.91,-125.25 148.01,-125.25"/>
<polygon fill="green" stroke="green" stroke-width="5" points="104.58,-112.78 93.68,-113.33 101.47,-120.97 104.58,-112.78"/>
</g>
<!-- start_c -->
<g id="node2" class="node">
<title>start_c</title>
<ellipse fill="none" stroke="black" cx="858.03" cy="-195" rx="52.15" ry="52.15"/>
<text text-anchor="middle" x="858.03" y="-198.2" font-family="Courier,monospace" font-weight="bold" font-size="14.00">company</text>
<text text-anchor="middle" x="858.03" y="-181.7" font-family="Courier,monospace" font-weight="bold" font-size="14.00">name</text>
</g>
<!-- pk_pc -->
<g id="node3" class="node">
<title>pk_pc</title>
<polygon fill="none" stroke="black" points="355.51,-65.25 355.51,-87.75 518.26,-87.75 518.26,-65.25 355.51,-65.25"/>
<text text-anchor="start" x="358.51" y="-72.45" font-family="Courier,monospace" font-weight="bold" font-size="14.00">PK_PEOPLE_COMPANIES</text>
<polygon fill="none" stroke="black" points="355.51,-42.75 355.51,-65.25 518.26,-65.25 518.26,-42.75 355.51,-42.75"/>
<text text-anchor="start" x="399.76" y="-48.95" font-family="Courier,monospace" font-size="14.00">person_id</text>
<polygon fill="none" stroke="black" points="355.51,-20.25 355.51,-42.75 518.26,-42.75 518.26,-20.25 355.51,-20.25"/>
<text text-anchor="start" x="395.63" y="-26.45" font-family="Courier,monospace" font-size="14.00">company_id</text>
</g>
<!-- ix_pc -->
<g id="node4" class="node">
<title>ix_pc</title>
<polygon fill="none" stroke="black" points="310.13,-275.25 310.13,-297.75 563.63,-297.75 563.63,-275.25 310.13,-275.25"/>
<text text-anchor="start" x="313.13" y="-282.45" font-family="Courier,monospace" font-weight="bold" font-size="14.00">IX_PEOPLE_COMPANIES_COMPANY_ID</text>
<polygon fill="none" stroke="black" points="310.13,-252.75 310.13,-275.25 563.63,-275.25 563.63,-252.75 310.13,-252.75"/>
<text text-anchor="start" x="395.63" y="-258.95" font-family="Courier,monospace" font-size="14.00">company_id</text>
<polygon fill="none" stroke="black" points="310.13,-230.25 310.13,-252.75 563.63,-252.75 563.63,-230.25 310.13,-230.25"/>
<text text-anchor="start" x="420.38" y="-236.45" font-family="Courier,monospace" font-size="14.00">ctid</text>
</g>
<!-- pk_pc&#45;&gt;ix_pc -->
<!-- pk_companies -->
<g id="node6" class="node">
<title>pk_companies</title>
<polygon fill="none" stroke="black" points="636.26,-65.25 636.26,-87.75 741.26,-87.75 741.26,-65.25 636.26,-65.25"/>
<text text-anchor="start" x="639.26" y="-72.45" font-family="Courier,monospace" font-weight="bold" font-size="14.00">PK_COMPANIES</text>
<polygon fill="none" stroke="black" points="636.26,-42.75 636.26,-65.25 741.26,-65.25 741.26,-42.75 636.26,-42.75"/>
<text text-anchor="start" x="680.51" y="-48.95" font-family="Courier,monospace" font-size="14.00">id</text>
<polygon fill="none" stroke="black" points="636.26,-20.25 636.26,-42.75 741.26,-42.75 741.26,-20.25 636.26,-20.25"/>
<text text-anchor="start" x="672.26" y="-26.45" font-family="Courier,monospace" font-size="14.00">ctid</text>
</g>
<!-- pk_pc&#45;&gt;pk_companies -->
<g id="edge12" class="edge">
<title>pk_pc:cid&#45;&gt;pk_companies:cid</title>
<path fill="none" stroke="blue" stroke-width="5" d="M519.26,-31.5C565.93,-31.5 579.78,-49.27 619.15,-53.23"/>
<polygon fill="blue" stroke="blue" stroke-width="5" points="618.83,-57.59 629.03,-53.7 619.25,-48.85 618.83,-57.59"/>
</g>
<!-- ix_companies -->
<g id="node7" class="node">
<title>ix_companies</title>
<polygon fill="none" stroke="black" points="615.63,-275.25 615.63,-297.75 761.88,-297.75 761.88,-275.25 615.63,-275.25"/>
<text text-anchor="start" x="618.63" y="-282.45" font-family="Courier,monospace" font-weight="bold" font-size="14.00">IX_COMPANIES_NAME</text>
<polygon fill="none" stroke="black" points="615.63,-252.75 615.63,-275.25 761.88,-275.25 761.88,-252.75 615.63,-252.75"/>
<text text-anchor="start" x="672.26" y="-258.95" font-family="Courier,monospace" font-size="14.00">name</text>
<polygon fill="none" stroke="black" points="615.63,-230.25 615.63,-252.75 761.88,-252.75 761.88,-230.25 615.63,-230.25"/>
<text text-anchor="start" x="672.26" y="-236.45" font-family="Courier,monospace" font-size="14.00">ctid</text>
</g>
<!-- ix_pc&#45;&gt;ix_companies -->
<!-- heap_companies -->
<g id="node8" class="node">
<title>heap_companies</title>
<polygon fill="none" stroke="black" points="628.01,-181.5 628.01,-204 749.51,-204 749.51,-181.5 628.01,-181.5"/>
<text text-anchor="start" x="631.01" y="-188.7" font-family="Courier,monospace" font-weight="bold" font-size="14.00">HEAP_COMPANIES</text>
<polygon fill="none" stroke="black" points="628.01,-159 628.01,-181.5 749.51,-181.5 749.51,-159 628.01,-159"/>
<text text-anchor="start" x="672.26" y="-165.2" font-family="Courier,monospace" font-size="14.00">ctid</text>
<polygon fill="none" stroke="black" points="628.01,-136.5 628.01,-159 749.51,-159 749.51,-136.5 628.01,-136.5"/>
<text text-anchor="start" x="680.51" y="-142.7" font-family="Courier,monospace" font-size="14.00">id</text>
<polygon fill="none" stroke="black" points="628.01,-114 628.01,-136.5 749.51,-136.5 749.51,-114 628.01,-114"/>
<text text-anchor="start" x="672.26" y="-120.2" font-family="Courier,monospace" font-size="14.00">name</text>
</g>
<!-- ix_pc&#45;&gt;heap_companies -->
<g id="edge16" class="edge">
<title>ix_pc:cid&#45;&gt;heap_companies:cid</title>
<path fill="none" stroke="green" stroke-width="5" d="M580.09,-260.13C612.62,-239.96 574.78,-147.75 627.01,-147.75"/>
<polygon fill="green" stroke="green" stroke-width="5" points="579.32,-255.82 570.68,-262.49 581.44,-264.3 579.32,-255.82"/>
</g>
<!-- heap_pc -->
<g id="node5" class="node">
<title>heap_pc</title>
<polygon fill="none" stroke="black" points="314.26,-181.5 314.26,-204 559.51,-204 559.51,-181.5 314.26,-181.5"/>
<text text-anchor="start" x="317.26" y="-188.7" font-family="Courier,monospace" font-weight="bold" font-size="14.00">HEAP_PEOPLE_COMPANIES_COMPANY</text>
<polygon fill="none" stroke="black" points="314.26,-159 314.26,-181.5 559.51,-181.5 559.51,-159 314.26,-159"/>
<text text-anchor="start" x="420.38" y="-165.2" font-family="Courier,monospace" font-size="14.00">ctid</text>
<polygon fill="none" stroke="black" points="314.26,-136.5 314.26,-159 559.51,-159 559.51,-136.5 314.26,-136.5"/>
<text text-anchor="start" x="399.76" y="-142.7" font-family="Courier,monospace" font-size="14.00">person_id</text>
<polygon fill="none" stroke="black" points="314.26,-114 314.26,-136.5 559.51,-136.5 559.51,-114 314.26,-114"/>
<text text-anchor="start" x="395.63" y="-120.2" font-family="Courier,monospace" font-size="14.00">company_id</text>
</g>
<!-- heap_pc&#45;&gt;ix_pc -->
<g id="edge2" class="edge">
<title>heap_pc&#45;&gt;ix_pc:ctid</title>
<path fill="none" stroke="green" stroke-width="5" d="M436.88,-229.25C436.88,-225.87 436.88,-222.4 436.88,-218.9"/>
<polygon fill="green" stroke="green" stroke-width="5" points="441.26,-223.92 436.88,-213.92 432.51,-223.92 441.26,-223.92"/>
</g>
<!-- pk_companies&#45;&gt;ix_companies -->
<!-- pk_companies&#45;&gt;heap_companies -->
<g id="edge4" class="edge">
<title>pk_companies&#45;&gt;heap_companies</title>
<path fill="none" stroke="blue" stroke-width="5" d="M688.76,-91.73C688.76,-92.5 688.76,-93.27 688.76,-94.03"/>
<polygon fill="blue" stroke="blue" stroke-width="5" points="684.38,-93.89 688.76,-103.89 693.13,-93.89 684.38,-93.89"/>
</g>
<!-- ix_companies&#45;&gt;start_c -->
<g id="edge14" class="edge">
<title>ix_companies:name&#45;&gt;start_c</title>
<path fill="none" stroke="green" stroke-width="5" d="M778.91,-261.87C795.93,-257.4 811.41,-246.48 824.02,-234.74"/>
<polygon fill="green" stroke="green" stroke-width="5" points="778.4,-257.52 769.06,-263.18 779.55,-266.19 778.4,-257.52"/>
</g>
<!-- ix_companies&#45;&gt;heap_companies -->
<g id="edge5" class="edge">
<title>ix_companies&#45;&gt;heap_companies</title>
<path fill="none" stroke="green" stroke-width="5" d="M688.76,-226.69C688.76,-225.8 688.76,-224.92 688.76,-224.03"/>
<polygon fill="green" stroke="green" stroke-width="5" points="693.13,-224.05 688.76,-214.05 684.38,-224.05 693.13,-224.05"/>
</g>
<!-- heap_companies&#45;&gt;start_c -->
<g id="edge13" class="edge">
<title>heap_companies:name&#45;&gt;start_c</title>
<path fill="none" stroke="blue" stroke-width="5" d="M750.51,-125.25C771.72,-125.25 791.99,-135.05 809.05,-147.3"/>
<polygon fill="blue" stroke="blue" stroke-width="5" points="806.25,-150.66 816.82,-153.41 811.66,-143.79 806.25,-150.66"/>
</g>
<!-- pk_people -->
<g id="node9" class="node">
<title>pk_people</title>
<polygon fill="none" stroke="black" points="157.26,-275.25 157.26,-297.75 237.51,-297.75 237.51,-275.25 157.26,-275.25"/>
<text text-anchor="start" x="160.26" y="-282.45" font-family="Courier,monospace" font-weight="bold" font-size="14.00">PK_PEOPLE</text>
<polygon fill="none" stroke="black" points="157.26,-252.75 157.26,-275.25 237.51,-275.25 237.51,-252.75 157.26,-252.75"/>
<text text-anchor="start" x="189.13" y="-258.95" font-family="Courier,monospace" font-size="14.00">id</text>
<polygon fill="none" stroke="black" points="157.26,-230.25 157.26,-252.75 237.51,-252.75 237.51,-230.25 157.26,-230.25"/>
<text text-anchor="start" x="180.88" y="-236.45" font-family="Courier,monospace" font-size="14.00">ctid</text>
</g>
<!-- pk_people&#45;&gt;ix_pc -->
<!-- pk_people&#45;&gt;heap_pc -->
<g id="edge18" class="edge">
<title>pk_people:pid&#45;&gt;heap_pc:pid</title>
<path fill="none" stroke="green" stroke-width="5" d="M254.06,-260.65C291.29,-241.59 258.07,-147.75 313.26,-147.75"/>
<polygon fill="green" stroke="green" stroke-width="5" points="253.46,-256.3 244.6,-262.69 255.3,-264.85 253.46,-256.3"/>
</g>
<!-- pk_people&#45;&gt;heap_people -->
<g id="edge8" class="edge">
<title>pk_people&#45;&gt;heap_people</title>
<path fill="none" stroke="green" stroke-width="5" d="M197.38,-226.69C197.38,-225.8 197.38,-224.92 197.38,-224.03"/>
<polygon fill="green" stroke="green" stroke-width="5" points="201.76,-224.05 197.38,-214.05 193.01,-224.05 201.76,-224.05"/>
</g>
<!-- ix_people&#45;&gt;pk_pc -->
<!-- ix_people&#45;&gt;pk_people -->
<!-- ix_people&#45;&gt;heap_people -->
<g id="edge7" class="edge">
<title>ix_people&#45;&gt;heap_people</title>
<path fill="none" stroke="blue" stroke-width="5" d="M197.38,-91.73C197.38,-92.5 197.38,-93.27 197.38,-94.03"/>
<polygon fill="blue" stroke="blue" stroke-width="5" points="193.01,-93.89 197.38,-103.89 201.76,-93.89 193.01,-93.89"/>
</g>
<!-- heap_people&#45;&gt;pk_pc -->
<g id="edge11" class="edge">
<title>heap_people:pid&#45;&gt;pk_pc:pid</title>
<path fill="none" stroke="blue" stroke-width="5" d="M246.76,-147.75C276.34,-147.75 271.89,-120.51 294.13,-101 314.9,-82.78 319.33,-63.14 338.5,-56.42"/>
<polygon fill="blue" stroke="blue" stroke-width="5" points="339.1,-60.75 348.34,-54.93 337.8,-52.1 339.1,-60.75"/>
</g>
</g>
</svg>
