<?xml version="1.0" encoding="UTF-8" standalone="no"?>
<!DOCTYPE svg PUBLIC "-//W3C//DTD SVG 1.1//EN"
 "http://www.w3.org/Graphics/SVG/1.1/DTD/svg11.dtd">
<!-- Generated by graphviz version 12.2.1 (20241206.2353)
 -->
<!-- Pages: 1 -->
<svg width="918pt" height="377pt"
 viewBox="0.00 0.00 918.18 377.00" xmlns="http://www.w3.org/2000/svg" xmlns:xlink="http://www.w3.org/1999/xlink">
<g id="graph0" class="graph" transform="scale(1 1) rotate(0) translate(4 373)">
<polygon fill="white" stroke="none" points="-4,4 -4,-373 914.18,-373 914.18,4 -4,4"/>
<g id="clust2" class="cluster">
<title>cluster_pc</title>
<polygon fill="none" stroke="black" points="294.13,-8 294.13,-361 579.63,-361 579.63,-8 294.13,-8"/>
<text text-anchor="middle" x="436.88" y="-339.9" font-family="Courier,monospace" font-weight="bold" font-size="18.00">PEOPLE_COMPANIES</text>
</g>
<g id="clust5" class="cluster">
<title>cluster_companies</title>
<polygon fill="none" stroke="black" points="599.63,-30 599.63,-361 777.88,-361 777.88,-30 599.63,-30"/>
<text text-anchor="middle" x="688.76" y="-339.9" font-family="Courier,monospace" font-weight="bold" font-size="18.00">COMPANIES</text>
</g>
<g id="clust9" class="cluster">
<title>cluster_people</title>
<polygon fill="none" stroke="black" points="120.63,-19 120.63,-350 274.13,-350 274.13,-19 120.63,-19"/>
<text text-anchor="middle" x="197.38" y="-328.9" font-family="Courier,monospace" font-weight="bold" font-size="18.00">PEOPLE</text>
</g>
<!-- start_p -->
<g id="node1" class="node">
<title>start_p</title>
<ellipse fill="none" stroke="black" cx="46.32" cy="-101" rx="46.32" ry="46.32"/>
<text text-anchor="middle" x="46.32" y="-104.2" font-family="Courier,monospace" font-weight="bold" font-size="14.00">person</text>
<text text-anchor="middle" x="46.32" y="-87.7" font-family="Courier,monospace" font-weight="bold" font-size="14.00">name</text>
</g>
<!-- ix_people -->
<g id="node10" class="node">
<title>ix_people</title>
<polygon fill="none" stroke="black" points="136.63,-76.25 136.63,-98.75 258.13,-98.75 258.13,-76.25 136.63,-76.25"/>
<text text-anchor="start" x="139.63" y="-83.45" font-family="Courier,monospace" font-weight="bold" font-size="14.00">IX_PEOPLE_NAME</text>
<polygon fill="none" stroke="black" points="136.63,-53.75 136.63,-76.25 258.13,-76.25 258.13,-53.75 136.63,-53.75"/>
<text text-anchor="start" x="180.88" y="-59.95" font-family="Courier,monospace" font-size="14.00">name</text>
<polygon fill="none" stroke="black" points="136.63,-31.25 136.63,-53.75 258.13,-53.75 258.13,-31.25 136.63,-31.25"/>
<text text-anchor="start" x="180.88" y="-37.45" font-family="Courier,monospace" font-size="14.00">ctid</text>
</g>
<!-- start_p&#45;&gt;ix_people -->
<g id="edge9" class="edge">
<title>start_p&#45;&gt;ix_people:name</title>
<path fill="none" stroke="blue" stroke-width="5" d="M86.41,-77.59C96.64,-72.86 108.09,-68.69 119.73,-66.54"/>
<polygon fill="blue" stroke="blue" stroke-width="5" points="119.89,-70.92 129.42,-65.6 119.05,-62.21 119.89,-70.92"/>
</g>
<!-- heap_people -->
<g id="node11" class="node">
<title>heap_people</title>
<polygon fill="none" stroke="black" points="149.01,-192.5 149.01,-215 245.76,-215 245.76,-192.5 149.01,-192.5"/>
<text text-anchor="start" x="152.01" y="-199.7" font-family="Courier,monospace" font-weight="bold" font-size="14.00">HEAP_PEOPLE</text>
<polygon fill="none" stroke="black" points="149.01,-170 149.01,-192.5 245.76,-192.5 245.76,-170 149.01,-170"/>
<text text-anchor="start" x="180.88" y="-176.2" font-family="Courier,monospace" font-size="14.00">ctid</text>
<polygon fill="none" stroke="black" points="149.01,-147.5 149.01,-170 245.76,-170 245.76,-147.5 149.01,-147.5"/>
<text text-anchor="start" x="189.13" y="-153.7" font-family="Courier,monospace" font-size="14.00">id</text>
<polygon fill="none" stroke="black" points="149.01,-125 149.01,-147.5 245.76,-147.5 245.76,-125 149.01,-125"/>
<text text-anchor="start" x="180.88" y="-131.2" font-family="Courier,monospace" font-size="14.00">name</text>
</g>
<!-- start_p&#45;&gt;heap_people -->
<g id="edge19" class="edge">
<title>start_p&#45;&gt;heap_people:name</title>
<path fill="none" stroke="green" stroke-width="5" d="M102.84,-127.8C117.22,-132.68 132.91,-136.25 148.01,-136.25"/>
<polygon fill="green" stroke="green" stroke-width="5" points="104.58,-123.78 93.68,-124.33 101.47,-131.97 104.58,-123.78"/>
</g>
<!-- start_c -->
<g id="node2" class="node">
<title>start_c</title>
<ellipse fill="none" stroke="black" cx="858.03" cy="-217" rx="52.15" ry="52.15"/>
<text text-anchor="middle" x="858.03" y="-220.2" font-family="Courier,monospace" font-weight="bold" font-size="14.00">company</text>
<text text-anchor="middle" x="858.03" y="-203.7" font-family="Courier,monospace" font-weight="bold" font-size="14.00">name</text>
</g>
<!-- pk_pc -->
<g id="node3" class="node">
<title>pk_pc</title>
<polygon fill="none" stroke="black" points="355.51,-87.5 355.51,-110 518.26,-110 518.26,-87.5 355.51,-87.5"/>
<text text-anchor="start" x="358.51" y="-94.7" font-family="Courier,monospace" font-weight="bold" font-size="14.00">PK_PEOPLE_COMPANIES</text>
<polygon fill="none" stroke="black" points="355.51,-65 355.51,-87.5 518.26,-87.5 518.26,-65 355.51,-65"/>
<text text-anchor="start" x="399.76" y="-71.2" font-family="Courier,monospace" font-size="14.00">person_id</text>
<polygon fill="none" stroke="black" points="355.51,-42.5 355.51,-65 518.26,-65 518.26,-42.5 355.51,-42.5"/>
<text text-anchor="start" x="395.63" y="-48.7" font-family="Courier,monospace" font-size="14.00">company_id</text>
<polygon fill="none" stroke="black" points="355.51,-20 355.51,-42.5 518.26,-42.5 518.26,-20 355.51,-20"/>
<text text-anchor="start" x="420.38" y="-26.2" font-family="Courier,monospace" font-size="14.00">ctid</text>
</g>
<!-- ix_pc -->
<g id="node4" class="node">
<title>ix_pc</title>
<polygon fill="none" stroke="black" points="310.13,-297.25 310.13,-319.75 563.63,-319.75 563.63,-297.25 310.13,-297.25"/>
<text text-anchor="start" x="313.13" y="-304.45" font-family="Courier,monospace" font-weight="bold" font-size="14.00">IX_PEOPLE_COMPANIES_COMPANY_ID</text>
<polygon fill="none" stroke="black" points="310.13,-274.75 310.13,-297.25 563.63,-297.25 563.63,-274.75 310.13,-274.75"/>
<text text-anchor="start" x="395.63" y="-280.95" font-family="Courier,monospace" font-size="14.00">company_id</text>
<polygon fill="none" stroke="black" points="310.13,-252.25 310.13,-274.75 563.63,-274.75 563.63,-252.25 310.13,-252.25"/>
<text text-anchor="start" x="420.38" y="-258.45" font-family="Courier,monospace" font-size="14.00">ctid</text>
</g>
<!-- pk_pc&#45;&gt;ix_pc -->
<!-- pk_companies -->
<g id="node6" class="node">
<title>pk_companies</title>
<polygon fill="none" stroke="black" points="636.26,-87.25 636.26,-109.75 741.26,-109.75 741.26,-87.25 636.26,-87.25"/>
<text text-anchor="start" x="639.26" y="-94.45" font-family="Courier,monospace" font-weight="bold" font-size="14.00">PK_COMPANIES</text>
<polygon fill="none" stroke="black" points="636.26,-64.75 636.26,-87.25 741.26,-87.25 741.26,-64.75 636.26,-64.75"/>
<text text-anchor="start" x="680.51" y="-70.95" font-family="Courier,monospace" font-size="14.00">id</text>
<polygon fill="none" stroke="black" points="636.26,-42.25 636.26,-64.75 741.26,-64.75 741.26,-42.25 636.26,-42.25"/>
<text text-anchor="start" x="672.26" y="-48.45" font-family="Courier,monospace" font-size="14.00">ctid</text>
</g>
<!-- pk_pc&#45;&gt;pk_companies -->
<g id="edge12" class="edge">
<title>pk_pc:cid&#45;&gt;pk_companies:cid</title>
<path fill="none" stroke="blue" stroke-width="5" d="M519.26,-53.75C565.91,-53.75 579.8,-71.32 619.15,-75.23"/>
<polygon fill="blue" stroke="blue" stroke-width="5" points="618.83,-79.6 629.03,-75.7 619.24,-70.86 618.83,-79.6"/>
</g>
<!-- ix_companies -->
<g id="node7" class="node">
<title>ix_companies</title>
<polygon fill="none" stroke="black" points="615.63,-297.25 615.63,-319.75 761.88,-319.75 761.88,-297.25 615.63,-297.25"/>
<text text-anchor="start" x="618.63" y="-304.45" font-family="Courier,monospace" font-weight="bold" font-size="14.00">IX_COMPANIES_NAME</text>
<polygon fill="none" stroke="black" points="615.63,-274.75 615.63,-297.25 761.88,-297.25 761.88,-274.75 615.63,-274.75"/>
<text text-anchor="start" x="672.26" y="-280.95" font-family="Courier,monospace" font-size="14.00">name</text>
<polygon fill="none" stroke="black" points="615.63,-252.25 615.63,-274.75 761.88,-274.75 761.88,-252.25 615.63,-252.25"/>
<text text-anchor="start" x="672.26" y="-258.45" font-family="Courier,monospace" font-size="14.00">ctid</text>
</g>
<!-- ix_pc&#45;&gt;ix_companies -->
<!-- heap_companies -->
<g id="node8" class="node">
<title>heap_companies</title>
<polygon fill="none" stroke="black" points="628.01,-203.5 628.01,-226 749.51,-226 749.51,-203.5 628.01,-203.5"/>
<text text-anchor="start" x="631.01" y="-210.7" font-family="Courier,monospace" font-weight="bold" font-size="14.00">HEAP_COMPANIES</text>
<polygon fill="none" stroke="black" points="628.01,-181 628.01,-203.5 749.51,-203.5 749.51,-181 628.01,-181"/>
<text text-anchor="start" x="672.26" y="-187.2" font-family="Courier,monospace" font-size="14.00">ctid</text>
<polygon fill="none" stroke="black" points="628.01,-158.5 628.01,-181 749.51,-181 749.51,-158.5 628.01,-158.5"/>
<text text-anchor="start" x="680.51" y="-164.7" font-family="Courier,monospace" font-size="14.00">id</text>
<polygon fill="none" stroke="black" points="628.01,-136 628.01,-158.5 749.51,-158.5 749.51,-136 628.01,-136"/>
<text text-anchor="start" x="672.26" y="-142.2" font-family="Courier,monospace" font-size="14.00">name</text>
</g>
<!-- ix_pc&#45;&gt;heap_companies -->
<g id="edge16" class="edge">
<title>ix_pc:cid&#45;&gt;heap_companies:cid</title>
<path fill="none" stroke="green" stroke-width="5" d="M580.09,-282.13C612.62,-261.96 574.78,-169.75 627.01,-169.75"/>
<polygon fill="green" stroke="green" stroke-width="5" points="579.32,-277.82 570.68,-284.49 581.44,-286.3 579.32,-277.82"/>
</g>
<!-- heap_pc -->
<g id="node5" class="node">
<title>heap_pc</title>
<polygon fill="none" stroke="black" points="314.26,-203.5 314.26,-226 559.51,-226 559.51,-203.5 314.26,-203.5"/>
<text text-anchor="start" x="317.26" y="-210.7" font-family="Courier,monospace" font-weight="bold" font-size="14.00">HEAP_PEOPLE_COMPANIES_COMPANY</text>
<polygon fill="none" stroke="black" points="314.26,-181 314.26,-203.5 559.51,-203.5 559.51,-181 314.26,-181"/>
<text text-anchor="start" x="420.38" y="-187.2" font-family="Courier,monospace" font-size="14.00">ctid</text>
<polygon fill="none" stroke="black" points="314.26,-158.5 314.26,-181 559.51,-181 559.51,-158.5 314.26,-158.5"/>
<text text-anchor="start" x="399.76" y="-164.7" font-family="Courier,monospace" font-size="14.00">person_id</text>
<polygon fill="none" stroke="black" points="314.26,-136 314.26,-158.5 559.51,-158.5 559.51,-136 314.26,-136"/>
<text text-anchor="start" x="395.63" y="-142.2" font-family="Courier,monospace" font-size="14.00">company_id</text>
</g>
<!-- heap_pc&#45;&gt;ix_pc -->
<g id="edge2" class="edge">
<title>heap_pc&#45;&gt;ix_pc:ctid</title>
<path fill="none" stroke="green" stroke-width="5" d="M436.88,-251.25C436.88,-247.87 436.88,-244.4 436.88,-240.9"/>
<polygon fill="green" stroke="green" stroke-width="5" points="441.26,-245.92 436.88,-235.92 432.51,-245.92 441.26,-245.92"/>
</g>
<!-- pk_companies&#45;&gt;ix_companies -->
<!-- pk_companies&#45;&gt;heap_companies -->
<g id="edge4" class="edge">
<title>pk_companies&#45;&gt;heap_companies</title>
<path fill="none" stroke="blue" stroke-width="5" d="M688.76,-113.73C688.76,-114.5 688.76,-115.27 688.76,-116.03"/>
<polygon fill="blue" stroke="blue" stroke-width="5" points="684.38,-115.89 688.76,-125.89 693.13,-115.89 684.38,-115.89"/>
</g>
<!-- ix_companies&#45;&gt;start_c -->
<g id="edge14" class="edge">
<title>ix_companies:name&#45;&gt;start_c</title>
<path fill="none" stroke="green" stroke-width="5" d="M778.91,-283.87C795.93,-279.4 811.41,-268.48 824.02,-256.74"/>
<polygon fill="green" stroke="green" stroke-width="5" points="778.4,-279.52 769.06,-285.18 779.55,-288.19 778.4,-279.52"/>
</g>
<!-- ix_companies&#45;&gt;heap_companies -->
<g id="edge5" class="edge">
<title>ix_companies&#45;&gt;heap_companies</title>
<path fill="none" stroke="green" stroke-width="5" d="M688.76,-248.69C688.76,-247.8 688.76,-246.92 688.76,-246.03"/>
<polygon fill="green" stroke="green" stroke-width="5" points="693.13,-246.05 688.76,-236.05 684.38,-246.05 693.13,-246.05"/>
</g>
<!-- heap_companies&#45;&gt;start_c -->
<g id="edge13" class="edge">
<title>heap_companies:name&#45;&gt;start_c</title>
<path fill="none" stroke="blue" stroke-width="5" d="M750.51,-147.25C771.72,-147.25 791.99,-157.05 809.05,-169.3"/>
<polygon fill="blue" stroke="blue" stroke-width="5" points="806.25,-172.66 816.82,-175.41 811.66,-165.79 806.25,-172.66"/>
</g>
<!-- pk_people -->
<g id="node9" class="node">
<title>pk_people</title>
<polygon fill="none" stroke="black" points="157.26,-286.25 157.26,-308.75 237.51,-308.75 237.51,-286.25 157.26,-286.25"/>
<text text-anchor="start" x="160.26" y="-293.45" font-family="Courier,monospace" font-weight="bold" font-size="14.00">PK_PEOPLE</text>
<polygon fill="none" stroke="black" points="157.26,-263.75 157.26,-286.25 237.51,-286.25 237.51,-263.75 157.26,-263.75"/>
<text text-anchor="start" x="189.13" y="-269.95" font-family="Courier,monospace" font-size="14.00">id</text>
<polygon fill="none" stroke="black" points="157.26,-241.25 157.26,-263.75 237.51,-263.75 237.51,-241.25 157.26,-241.25"/>
<text text-anchor="start" x="180.88" y="-247.45" font-family="Courier,monospace" font-size="14.00">ctid</text>
</g>
<!-- pk_people&#45;&gt;ix_pc -->
<!-- pk_people&#45;&gt;heap_pc -->
<g id="edge18" class="edge">
<title>pk_people:pid&#45;&gt;heap_pc:pid</title>
<path fill="none" stroke="green" stroke-width="5" d="M254.09,-271.5C288.3,-253.24 262.16,-169.75 313.26,-169.75"/>
<polygon fill="green" stroke="green" stroke-width="5" points="253.39,-267.17 244.59,-273.63 255.31,-275.71 253.39,-267.17"/>
</g>
<!-- pk_people&#45;&gt;heap_people -->
<g id="edge8" class="edge">
<title>pk_people&#45;&gt;heap_people</title>
<path fill="none" stroke="green" stroke-width="5" d="M197.38,-237.69C197.38,-236.8 197.38,-235.92 197.38,-235.03"/>
<polygon fill="green" stroke="green" stroke-width="5" points="201.76,-235.05 197.38,-225.05 193.01,-235.05 201.76,-235.05"/>
</g>
<!-- ix_people&#45;&gt;pk_pc -->
<!-- ix_people&#45;&gt;pk_people -->
<!-- ix_people&#45;&gt;heap_people -->
<g id="edge7" class="edge">
<title>ix_people&#45;&gt;heap_people</title>
<path fill="none" stroke="blue" stroke-width="5" d="M197.38,-102.73C197.38,-103.5 197.38,-104.27 197.38,-105.03"/>
<polygon fill="blue" stroke="blue" stroke-width="5" points="193.01,-104.89 197.38,-114.89 201.76,-104.89 193.01,-104.89"/>
</g>
<!-- heap_people&#45;&gt;pk_pc -->
<g id="edge11" class="edge">
<title>heap_people:pid&#45;&gt;pk_pc:pid</title>
<path fill="none" stroke="blue" stroke-width="5" d="M246.76,-158.75C252.79,-158.75 313.42,-105.85 341.21,-84.77"/>
<polygon fill="blue" stroke="blue" stroke-width="5" points="343.19,-88.69 349.25,-79.61 338.47,-81.33 343.19,-88.69"/>
</g>
</g>
</svg>
