<?xml version="1.0" encoding="UTF-8" standalone="no"?>
<!DOCTYPE svg PUBLIC "-//W3C//DTD SVG 1.1//EN"
 "http://www.w3.org/Graphics/SVG/1.1/DTD/svg11.dtd">
<!-- Generated by graphviz version 12.2.1 (20241206.2353)
 -->
<!-- Pages: 1 -->
<svg width="918pt" height="399pt"
 viewBox="0.00 0.00 918.18 399.00" xmlns="http://www.w3.org/2000/svg" xmlns:xlink="http://www.w3.org/1999/xlink">
<g id="graph0" class="graph" transform="scale(1 1) rotate(0) translate(4 395)">
<polygon fill="white" stroke="none" points="-4,4 -4,-395 914.18,-395 914.18,4 -4,4"/>
<g id="clust2" class="cluster">
<title>cluster_pc</title>
<polygon fill="none" stroke="black" points="294.13,-30 294.13,-361 579.63,-361 579.63,-30 294.13,-30"/>
<text text-anchor="middle" x="436.88" y="-339.9" font-family="Courier,monospace" font-weight="bold" font-size="18.00">PEOPLE_COMPANIES</text>
</g>
<g id="clust5" class="cluster">
<title>cluster_companies</title>
<polygon fill="none" stroke="black" points="599.63,-52 599.63,-383 777.88,-383 777.88,-52 599.63,-52"/>
<text text-anchor="middle" x="688.76" y="-361.9" font-family="Courier,monospace" font-weight="bold" font-size="18.00">COMPANIES</text>
</g>
<g id="clust9" class="cluster">
<title>cluster_people</title>
<polygon fill="none" stroke="black" points="120.63,-8 120.63,-339 274.13,-339 274.13,-8 120.63,-8"/>
<text text-anchor="middle" x="197.38" y="-317.9" font-family="Courier,monospace" font-weight="bold" font-size="18.00">PEOPLE</text>
</g>
<!-- start_p -->
<g id="node1" class="node">
<title>start_p</title>
<ellipse fill="none" stroke="black" cx="46.32" cy="-90" rx="46.32" ry="46.32"/>
<text text-anchor="middle" x="46.32" y="-93.2" font-family="Courier,monospace" font-weight="bold" font-size="14.00">person</text>
<text text-anchor="middle" x="46.32" y="-76.7" font-family="Courier,monospace" font-weight="bold" font-size="14.00">name</text>
</g>
<!-- ix_people -->
<g id="node10" class="node">
<title>ix_people</title>
<polygon fill="none" stroke="black" points="136.63,-65.25 136.63,-87.75 258.13,-87.75 258.13,-65.25 136.63,-65.25"/>
<text text-anchor="start" x="139.63" y="-72.45" font-family="Courier,monospace" font-weight="bold" font-size="14.00">IX_PEOPLE_NAME</text>
<polygon fill="none" stroke="black" points="136.63,-42.75 136.63,-65.25 258.13,-65.25 258.13,-42.75 136.63,-42.75"/>
<text text-anchor="start" x="180.88" y="-48.95" font-family="Courier,monospace" font-size="14.00">name</text>
<polygon fill="none" stroke="black" points="136.63,-20.25 136.63,-42.75 258.13,-42.75 258.13,-20.25 136.63,-20.25"/>
<text text-anchor="start" x="180.88" y="-26.45" font-family="Courier,monospace" font-size="14.00">ctid</text>
</g>
<!-- start_p&#45;&gt;ix_people -->
<g id="edge9" class="edge">
<title>start_p&#45;&gt;ix_people:r</title>
<path fill="none" stroke="blue" stroke-width="5" d="M86.41,-66.59C96.64,-61.86 108.09,-57.69 119.73,-55.54"/>
<polygon fill="blue" stroke="blue" stroke-width="5" points="119.89,-59.92 129.42,-54.6 119.05,-51.21 119.89,-59.92"/>
</g>
<!-- heap_people -->
<g id="node11" class="node">
<title>heap_people</title>
<polygon fill="none" stroke="black" points="149.01,-181.5 149.01,-204 245.76,-204 245.76,-181.5 149.01,-181.5"/>
<text text-anchor="start" x="152.01" y="-188.7" font-family="Courier,monospace" font-weight="bold" font-size="14.00">HEAP_PEOPLE</text>
<polygon fill="none" stroke="black" points="149.01,-159 149.01,-181.5 245.76,-181.5 245.76,-159 149.01,-159"/>
<text text-anchor="start" x="180.88" y="-165.2" font-family="Courier,monospace" font-size="14.00">ctid</text>
<polygon fill="none" stroke="black" points="149.01,-136.5 149.01,-159 245.76,-159 245.76,-136.5 149.01,-136.5"/>
<text text-anchor="start" x="189.13" y="-142.7" font-family="Courier,monospace" font-size="14.00">id</text>
<polygon fill="none" stroke="black" points="149.01,-114 149.01,-136.5 245.76,-136.5 245.76,-114 149.01,-114"/>
<text text-anchor="start" x="180.88" y="-120.2" font-family="Courier,monospace" font-size="14.00">name</text>
</g>
<!-- start_p&#45;&gt;heap_people -->
<g id="edge19" class="edge">
<title>start_p&#45;&gt;heap_people:r</title>
<path fill="none" stroke="green" stroke-width="5" d="M102.84,-116.8C117.22,-121.68 132.91,-125.25 148.01,-125.25"/>
<polygon fill="green" stroke="green" stroke-width="5" points="104.58,-112.78 93.68,-113.33 101.47,-120.97 104.58,-112.78"/>
</g>
<!-- start_c -->
<g id="node2" class="node">
<title>start_c</title>
<ellipse fill="none" stroke="black" cx="858.03" cy="-239" rx="52.15" ry="52.15"/>
<text text-anchor="middle" x="858.03" y="-242.2" font-family="Courier,monospace" font-weight="bold" font-size="14.00">company</text>
<text text-anchor="middle" x="858.03" y="-225.7" font-family="Courier,monospace" font-weight="bold" font-size="14.00">name</text>
</g>
<!-- pk_pc -->
<g id="node3" class="node">
<title>pk_pc</title>
<polygon fill="none" stroke="black" points="355.51,-87.25 355.51,-109.75 518.26,-109.75 518.26,-87.25 355.51,-87.25"/>
<text text-anchor="start" x="358.51" y="-94.45" font-family="Courier,monospace" font-weight="bold" font-size="14.00">PK_PEOPLE_COMPANIES</text>
<polygon fill="none" stroke="black" points="355.51,-64.75 355.51,-87.25 518.26,-87.25 518.26,-64.75 355.51,-64.75"/>
<text text-anchor="start" x="399.76" y="-70.95" font-family="Courier,monospace" font-size="14.00">person_id</text>
<polygon fill="none" stroke="black" points="355.51,-42.25 355.51,-64.75 518.26,-64.75 518.26,-42.25 355.51,-42.25"/>
<text text-anchor="start" x="395.63" y="-48.45" font-family="Courier,monospace" font-size="14.00">company_id</text>
</g>
<!-- ix_pc -->
<g id="node4" class="node">
<title>ix_pc</title>
<polygon fill="none" stroke="black" points="310.13,-297.25 310.13,-319.75 563.63,-319.75 563.63,-297.25 310.13,-297.25"/>
<text text-anchor="start" x="313.13" y="-304.45" font-family="Courier,monospace" font-weight="bold" font-size="14.00">IX_PEOPLE_COMPANIES_COMPANY_ID</text>
<polygon fill="none" stroke="black" points="310.13,-274.75 310.13,-297.25 563.63,-297.25 563.63,-274.75 310.13,-274.75"/>
<text text-anchor="start" x="395.63" y="-280.95" font-family="Courier,monospace" font-size="14.00">company_id</text>
<polygon fill="none" stroke="black" points="310.13,-252.25 310.13,-274.75 563.63,-274.75 563.63,-252.25 310.13,-252.25"/>
<text text-anchor="start" x="420.38" y="-258.45" font-family="Courier,monospace" font-size="14.00">ctid</text>
</g>
<!-- pk_pc&#45;&gt;ix_pc -->
<!-- pk_companies -->
<g id="node6" class="node">
<title>pk_companies</title>
<polygon fill="none" stroke="black" points="636.26,-109.25 636.26,-131.75 741.26,-131.75 741.26,-109.25 636.26,-109.25"/>
<text text-anchor="start" x="639.26" y="-116.45" font-family="Courier,monospace" font-weight="bold" font-size="14.00">PK_COMPANIES</text>
<polygon fill="none" stroke="black" points="636.26,-86.75 636.26,-109.25 741.26,-109.25 741.26,-86.75 636.26,-86.75"/>
<text text-anchor="start" x="680.51" y="-92.95" font-family="Courier,monospace" font-size="14.00">id</text>
<polygon fill="none" stroke="black" points="636.26,-64.25 636.26,-86.75 741.26,-86.75 741.26,-64.25 636.26,-64.25"/>
<text text-anchor="start" x="672.26" y="-70.45" font-family="Courier,monospace" font-size="14.00">ctid</text>
</g>
<!-- pk_pc&#45;&gt;pk_companies -->
<g id="edge12" class="edge">
<title>pk_pc:r&#45;&gt;pk_companies:l</title>
<path fill="none" stroke="blue" stroke-width="5" d="M519.26,-53.5C568.65,-53.5 578.31,-89.11 619.32,-96.62"/>
<polygon fill="blue" stroke="blue" stroke-width="5" points="618.7,-100.96 629.04,-97.46 619.46,-92.24 618.7,-100.96"/>
</g>
<!-- ix_companies -->
<g id="node7" class="node">
<title>ix_companies</title>
<polygon fill="none" stroke="black" points="615.63,-319.25 615.63,-341.75 761.88,-341.75 761.88,-319.25 615.63,-319.25"/>
<text text-anchor="start" x="618.63" y="-326.45" font-family="Courier,monospace" font-weight="bold" font-size="14.00">IX_COMPANIES_NAME</text>
<polygon fill="none" stroke="black" points="615.63,-296.75 615.63,-319.25 761.88,-319.25 761.88,-296.75 615.63,-296.75"/>
<text text-anchor="start" x="672.26" y="-302.95" font-family="Courier,monospace" font-size="14.00">name</text>
<polygon fill="none" stroke="black" points="615.63,-274.25 615.63,-296.75 761.88,-296.75 761.88,-274.25 615.63,-274.25"/>
<text text-anchor="start" x="672.26" y="-280.45" font-family="Courier,monospace" font-size="14.00">ctid</text>
</g>
<!-- ix_pc&#45;&gt;ix_companies -->
<!-- heap_companies -->
<g id="node8" class="node">
<title>heap_companies</title>
<polygon fill="none" stroke="black" points="628.01,-225.5 628.01,-248 749.51,-248 749.51,-225.5 628.01,-225.5"/>
<text text-anchor="start" x="631.01" y="-232.7" font-family="Courier,monospace" font-weight="bold" font-size="14.00">HEAP_COMPANIES</text>
<polygon fill="none" stroke="black" points="628.01,-203 628.01,-225.5 749.51,-225.5 749.51,-203 628.01,-203"/>
<text text-anchor="start" x="672.26" y="-209.2" font-family="Courier,monospace" font-size="14.00">ctid</text>
<polygon fill="none" stroke="black" points="628.01,-180.5 628.01,-203 749.51,-203 749.51,-180.5 628.01,-180.5"/>
<text text-anchor="start" x="680.51" y="-186.7" font-family="Courier,monospace" font-size="14.00">id</text>
<polygon fill="none" stroke="black" points="628.01,-158 628.01,-180.5 749.51,-180.5 749.51,-158 628.01,-158"/>
<text text-anchor="start" x="672.26" y="-164.2" font-family="Courier,monospace" font-size="14.00">name</text>
</g>
<!-- ix_pc&#45;&gt;heap_companies -->
<g id="edge16" class="edge">
<title>ix_pc:l&#45;&gt;heap_companies:l</title>
<path fill="none" stroke="green" stroke-width="5" d="M580.03,-281.71C606.51,-263.27 583.25,-191.75 627.01,-191.75"/>
<polygon fill="green" stroke="green" stroke-width="5" points="579.1,-277.42 570.64,-284.32 581.45,-285.85 579.1,-277.42"/>
</g>
<!-- heap_pc -->
<g id="node5" class="node">
<title>heap_pc</title>
<polygon fill="none" stroke="black" points="314.26,-203.5 314.26,-226 559.51,-226 559.51,-203.5 314.26,-203.5"/>
<text text-anchor="start" x="317.26" y="-210.7" font-family="Courier,monospace" font-weight="bold" font-size="14.00">HEAP_PEOPLE_COMPANIES_COMPANY</text>
<polygon fill="none" stroke="black" points="314.26,-181 314.26,-203.5 559.51,-203.5 559.51,-181 314.26,-181"/>
<text text-anchor="start" x="420.38" y="-187.2" font-family="Courier,monospace" font-size="14.00">ctid</text>
<polygon fill="none" stroke="black" points="314.26,-158.5 314.26,-181 559.51,-181 559.51,-158.5 314.26,-158.5"/>
<text text-anchor="start" x="399.76" y="-164.7" font-family="Courier,monospace" font-size="14.00">person_id</text>
<polygon fill="none" stroke="black" points="314.26,-136 314.26,-158.5 559.51,-158.5 559.51,-136 314.26,-136"/>
<text text-anchor="start" x="395.63" y="-142.2" font-family="Courier,monospace" font-size="14.00">company_id</text>
</g>
<!-- heap_pc&#45;&gt;ix_pc -->
<g id="edge2" class="edge">
<title>heap_pc&#45;&gt;ix_pc:r</title>
<path fill="none" stroke="green" stroke-width="5" d="M436.88,-251.25C436.88,-247.87 436.88,-244.4 436.88,-240.9"/>
<polygon fill="green" stroke="green" stroke-width="5" points="441.26,-245.92 436.88,-235.92 432.51,-245.92 441.26,-245.92"/>
</g>
<!-- pk_companies&#45;&gt;ix_companies -->
<!-- pk_companies&#45;&gt;heap_companies -->
<g id="edge4" class="edge">
<title>pk_companies&#45;&gt;heap_companies</title>
<path fill="none" stroke="blue" stroke-width="5" d="M688.76,-135.73C688.76,-136.5 688.76,-137.27 688.76,-138.03"/>
<polygon fill="blue" stroke="blue" stroke-width="5" points="684.38,-137.89 688.76,-147.89 693.13,-137.89 684.38,-137.89"/>
</g>
<!-- ix_companies&#45;&gt;start_c -->
<g id="edge14" class="edge">
<title>ix_companies:r&#45;&gt;start_c</title>
<path fill="none" stroke="green" stroke-width="5" d="M778.91,-305.87C795.93,-301.4 811.41,-290.48 824.02,-278.74"/>
<polygon fill="green" stroke="green" stroke-width="5" points="778.4,-301.52 769.06,-307.18 779.55,-310.19 778.4,-301.52"/>
</g>
<!-- ix_companies&#45;&gt;heap_companies -->
<g id="edge5" class="edge">
<title>ix_companies&#45;&gt;heap_companies</title>
<path fill="none" stroke="green" stroke-width="5" d="M688.76,-270.69C688.76,-269.8 688.76,-268.92 688.76,-268.03"/>
<polygon fill="green" stroke="green" stroke-width="5" points="693.13,-268.05 688.76,-258.05 684.38,-268.05 693.13,-268.05"/>
</g>
<!-- heap_companies&#45;&gt;start_c -->
<g id="edge13" class="edge">
<title>heap_companies:r&#45;&gt;start_c</title>
<path fill="none" stroke="blue" stroke-width="5" d="M750.51,-169.25C771.72,-169.25 791.99,-179.05 809.05,-191.3"/>
<polygon fill="blue" stroke="blue" stroke-width="5" points="806.25,-194.66 816.82,-197.41 811.66,-187.79 806.25,-194.66"/>
</g>
<!-- pk_people -->
<g id="node9" class="node">
<title>pk_people</title>
<polygon fill="none" stroke="black" points="157.26,-275.25 157.26,-297.75 237.51,-297.75 237.51,-275.25 157.26,-275.25"/>
<text text-anchor="start" x="160.26" y="-282.45" font-family="Courier,monospace" font-weight="bold" font-size="14.00">PK_PEOPLE</text>
<polygon fill="none" stroke="black" points="157.26,-252.75 157.26,-275.25 237.51,-275.25 237.51,-252.75 157.26,-252.75"/>
<text text-anchor="start" x="189.13" y="-258.95" font-family="Courier,monospace" font-size="14.00">id</text>
<polygon fill="none" stroke="black" points="157.26,-230.25 157.26,-252.75 237.51,-252.75 237.51,-230.25 157.26,-230.25"/>
<text text-anchor="start" x="180.88" y="-236.45" font-family="Courier,monospace" font-size="14.00">ctid</text>
</g>
<!-- pk_people&#45;&gt;ix_pc -->
<!-- pk_people&#45;&gt;heap_pc -->
<g id="edge18" class="edge">
<title>pk_people:l&#45;&gt;heap_pc:r</title>
<path fill="none" stroke="green" stroke-width="5" d="M254.05,-260.42C285.6,-243.2 266.06,-169.75 313.26,-169.75"/>
<polygon fill="green" stroke="green" stroke-width="5" points="253.35,-256.09 244.58,-262.6 255.31,-264.62 253.35,-256.09"/>
</g>
<!-- pk_people&#45;&gt;heap_people -->
<g id="edge8" class="edge">
<title>pk_people&#45;&gt;heap_people</title>
<path fill="none" stroke="green" stroke-width="5" d="M197.38,-226.69C197.38,-225.8 197.38,-224.92 197.38,-224.03"/>
<polygon fill="green" stroke="green" stroke-width="5" points="201.76,-224.05 197.38,-214.05 193.01,-224.05 201.76,-224.05"/>
</g>
<!-- ix_people&#45;&gt;pk_pc -->
<!-- ix_people&#45;&gt;pk_people -->
<!-- ix_people&#45;&gt;heap_people -->
<g id="edge7" class="edge">
<title>ix_people&#45;&gt;heap_people</title>
<path fill="none" stroke="blue" stroke-width="5" d="M197.38,-91.73C197.38,-92.5 197.38,-93.27 197.38,-94.03"/>
<polygon fill="blue" stroke="blue" stroke-width="5" points="193.01,-93.89 197.38,-103.89 201.76,-93.89 193.01,-93.89"/>
</g>
<!-- heap_people&#45;&gt;pk_pc -->
<g id="edge11" class="edge">
<title>heap_people:l&#45;&gt;pk_pc:l</title>
<path fill="none" stroke="blue" stroke-width="5" d="M246.76,-147.75C298.33,-147.75 297.79,-90.09 338.58,-78.15"/>
<polygon fill="blue" stroke="blue" stroke-width="5" points="339,-82.51 348.32,-76.83 337.83,-73.83 339,-82.51"/>
</g>
</g>
</svg>
